{
	"patcher" : 	{
		"fileversion" : 1,
		"appversion" : 		{
			"major" : 8,
			"minor" : 5,
			"revision" : 6,
			"architecture" : "x64",
			"modernui" : 1
		}
,
		"classnamespace" : "box",
		"rect" : [ 34.0, 87.0, 1612.0, 929.0 ],
		"bglocked" : 0,
		"openinpresentation" : 0,
		"default_fontsize" : 12.0,
		"default_fontface" : 0,
		"default_fontname" : "Arial",
		"gridonopen" : 1,
		"gridsize" : [ 15.0, 15.0 ],
		"gridsnaponopen" : 1,
		"objectsnaponopen" : 1,
		"statusbarvisible" : 2,
		"toolbarvisible" : 1,
		"lefttoolbarpinned" : 0,
		"toptoolbarpinned" : 0,
		"righttoolbarpinned" : 0,
		"bottomtoolbarpinned" : 0,
		"toolbars_unpinned_last_save" : 0,
		"tallnewobj" : 0,
		"boxanimatetime" : 200,
		"enablehscroll" : 1,
		"enablevscroll" : 1,
		"devicewidth" : 0.0,
		"description" : "",
		"digest" : "",
		"tags" : "",
		"style" : "",
		"subpatcher_template" : "",
		"assistshowspatchername" : 0,
		"boxes" : [ 			{
				"box" : 				{
					"id" : "obj-13",
					"maxclass" : "message",
					"numinlets" : 2,
					"numoutlets" : 1,
					"outlettype" : [ "" ],
					"patching_rect" : [ 919.66903893333324, 771.0, 65.0, 22.0 ],
					"text" : "window $1"
				}

			}
, 			{
				"box" : 				{
					"id" : "obj-16",
					"items" : [ "sine", ",", "hann", ",", "triangle", ",", "rampdown", ",", "rampup", ",", "onset", ",", "hamming", ",", "blackman", ",", "square" ],
					"maxclass" : "umenu",
					"numinlets" : 1,
					"numoutlets" : 3,
					"outlettype" : [ "int", "", "" ],
					"parameter_enable" : 1,
					"patching_rect" : [ 879.169038933333127, 712.073190341243048, 100.0, 22.0 ],
					"saved_attribute_attributes" : 					{
						"valueof" : 						{
							"parameter_enum" : [ "sine", "hann", "triangle", "rampdown", "rampup", "onset", "hamming", "blackman", "square" ],
							"parameter_initial" : [ 3.0 ],
							"parameter_initial_enable" : 1,
							"parameter_longname" : "umenu",
							"parameter_mmax" : 8,
							"parameter_shortname" : "umenu",
							"parameter_type" : 2
						}

					}
,
					"varname" : "umenu"
				}

			}
, 			{
				"box" : 				{
					"id" : "obj-132",
					"maxclass" : "message",
					"numinlets" : 2,
					"numoutlets" : 1,
					"outlettype" : [ "" ],
					"patching_rect" : [ 812.001186133333249, 771.0, 53.0, 22.0 ],
					"text" : "width $1"
				}

			}
, 			{
				"box" : 				{
					"id" : "obj-130",
					"maxclass" : "live.dial",
					"numinlets" : 1,
					"numoutlets" : 2,
					"outlettype" : [ "", "float" ],
					"parameter_enable" : 1,
					"patching_rect" : [ 812.001186133333249, 696.573190341243048, 41.000000000000227, 48.0 ],
					"saved_attribute_attributes" : 					{
						"valueof" : 						{
							"parameter_initial" : [ 50 ],
							"parameter_initial_enable" : 1,
							"parameter_longname" : "live.dial[26]",
							"parameter_mmax" : 100.0,
							"parameter_shortname" : "width",
							"parameter_type" : 0,
							"parameter_unitstyle" : 5
						}

					}
,
					"varname" : "live.dial[3]"
				}

			}
, 			{
				"box" : 				{
					"id" : "obj-113",
					"maxclass" : "message",
					"numinlets" : 2,
					"numoutlets" : 1,
					"outlettype" : [ "" ],
					"patching_rect" : [ 739.833333333333371, 771.0, 58.0, 22.0 ],
					"text" : "speed $1"
				}

			}
, 			{
				"box" : 				{
					"id" : "obj-18",
					"maxclass" : "message",
					"numinlets" : 2,
					"numoutlets" : 1,
					"outlettype" : [ "" ],
					"patching_rect" : [ 681.169038933333127, 771.0, 47.0, 22.0 ],
					"text" : "size $1"
				}

			}
, 			{
				"box" : 				{
					"id" : "obj-134",
					"maxclass" : "live.dial",
					"numinlets" : 1,
					"numoutlets" : 2,
					"outlettype" : [ "", "float" ],
					"parameter_enable" : 1,
					"patching_rect" : [ 739.833333333333371, 696.573190341243048, 41.000000000000227, 48.0 ],
					"saved_attribute_attributes" : 					{
						"valueof" : 						{
							"parameter_exponent" : 1.58,
							"parameter_initial" : [ 100 ],
							"parameter_initial_enable" : 1,
							"parameter_longname" : "live.dial[28]",
							"parameter_mmax" : 200.0,
							"parameter_mmin" : 50.0,
							"parameter_shortname" : "speed",
							"parameter_type" : 0,
							"parameter_unitstyle" : 5
						}

					}
,
					"varname" : "live.dial[1]"
				}

			}
, 			{
				"box" : 				{
					"id" : "obj-20",
					"maxclass" : "live.dial",
					"numinlets" : 1,
					"numoutlets" : 2,
					"outlettype" : [ "", "float" ],
					"parameter_enable" : 1,
					"patching_rect" : [ 681.169038933333127, 696.573190341243048, 41.000000000000227, 48.0 ],
					"saved_attribute_attributes" : 					{
						"valueof" : 						{
							"parameter_exponent" : 3.333,
							"parameter_initial" : [ 800 ],
							"parameter_initial_enable" : 1,
							"parameter_longname" : "live.dial[29]",
							"parameter_mmax" : 1000.0,
							"parameter_mmin" : 10.0,
							"parameter_shortname" : "size",
							"parameter_type" : 0,
							"parameter_unitstyle" : 5
						}

					}
,
					"varname" : "live.dial[4]"
				}

			}
, 			{
				"box" : 				{
					"bubble" : 1,
					"bubbleside" : 2,
					"fontname" : "Arial",
					"fontsize" : 13.0,
					"id" : "obj-28",
					"linecount" : 2,
					"maxclass" : "comment",
					"numinlets" : 1,
					"numoutlets" : 0,
					"patching_rect" : [ 878.169038933333127, 647.862274912246903, 104.0, 55.0 ],
					"presentation_linecount" : 2,
					"text" : "adjust playback parameters"
				}

			}
, 			{
				"box" : 				{
					"id" : "obj-21",
					"maxclass" : "newobj",
					"numinlets" : 1,
					"numoutlets" : 2,
					"outlettype" : [ "", "" ],
					"patching_rect" : [ 296.333333333333371, 771.0, 178.0, 22.0 ],
					"text" : "sp.concatmatch rhythms-concat"
				}

			}
, 			{
				"box" : 				{
					"bgcolor" : [ 0.08992911875248, 0.093083925545216, 0.09630611538887, 1.0 ],
					"buffername" : "2952concat_buffer",
					"gridcolor" : [ 0.349019607843137, 0.349019607843137, 0.349019607843137, 0.0 ],
					"id" : "obj-23",
					"ignoreclick" : 1,
					"labels" : 0,
					"maxclass" : "waveform~",
					"numinlets" : 5,
					"numoutlets" : 6,
					"outlettype" : [ "float", "float", "float", "float", "list", "" ],
					"patching_rect" : [ 540.666666865348702, 819.0, 399.0, 101.178094584283144 ],
					"ruler" : 0,
					"vticks" : 0,
					"waveformcolor" : [ 0.76078431372549, 0.76078431372549, 0.76078431372549, 1.0 ]
				}

			}
, 			{
				"box" : 				{
					"id" : "obj-27",
					"maxclass" : "ezdac~",
					"numinlets" : 2,
					"numoutlets" : 0,
					"patching_rect" : [ 296.333333333333371, 871.178094584283144, 45.0, 45.0 ]
				}

			}
, 			{
				"box" : 				{
					"id" : "obj-148",
					"linecount" : 2,
					"maxclass" : "newobj",
					"numinlets" : 1,
					"numoutlets" : 2,
					"outlettype" : [ "signal", "signal" ],
					"patching_rect" : [ 296.333333333333371, 815.0, 222.0, 35.0 ],
					"text" : "sp.concatplayer~ @size 800 @window rampdown @loudness 80"
				}

			}
, 			{
				"box" : 				{
					"id" : "obj-95",
					"maxclass" : "newobj",
					"numinlets" : 2,
					"numoutlets" : 4,
					"outlettype" : [ "", "", "signal", "signal" ],
					"patching_rect" : [ 219.0, 685.940939018487825, 251.0, 22.0 ],
					"text" : "sp.descriptors~ @sensitivity 50 @lockout 150"
				}

			}
, 			{
				"box" : 				{
					"fontface" : 0,
					"id" : "obj-4",
					"linmarkers" : [ 0.0, 11025.0, 16537.5 ],
					"logmarkers" : [ 0.0, 100.0, 1000.0, 10000.0 ],
					"maxclass" : "filtergraph~",
					"nfilters" : 1,
					"numinlets" : 8,
					"numoutlets" : 7,
					"outlettype" : [ "list", "float", "float", "float", "float", "list", "int" ],
					"parameter_enable" : 0,
					"patching_rect" : [ 716.250010251998901, 486.666670858860016, 360.0, 155.0 ],
					"setfilter" : [ 0, 3, 1, 0, 0, 48.862213134765625, 1.047190070152283, 0.31332078576088, 0.0, 0.0, 0.0, 0.0, 0.0, 0.0 ]
				}

			}
, 			{
				"box" : 				{
					"fontname" : "Arial",
					"fontsize" : 13.0,
					"hidden" : 1,
					"id" : "obj-10",
					"maxclass" : "message",
					"numinlets" : 2,
					"numoutlets" : 1,
					"outlettype" : [ "" ],
					"patching_rect" : [ 1013.000010251998901, 423.166670858860016, 48.0, 23.0 ],
					"text" : "set $1"
				}

			}
, 			{
				"box" : 				{
					"fontname" : "Arial",
					"fontsize" : 13.0,
					"hidden" : 1,
					"id" : "obj-9",
					"maxclass" : "message",
					"numinlets" : 2,
					"numoutlets" : 1,
					"outlettype" : [ "" ],
					"patching_rect" : [ 933.000010251998901, 423.166670858860016, 48.0, 23.0 ],
					"text" : "set $1"
				}

			}
, 			{
				"box" : 				{
					"fontname" : "Arial",
					"fontsize" : 13.0,
					"hidden" : 1,
					"id" : "obj-8",
					"maxclass" : "message",
					"numinlets" : 2,
					"numoutlets" : 1,
					"outlettype" : [ "" ],
					"patching_rect" : [ 838.000010251998901, 417.166670858860016, 48.0, 23.0 ],
					"text" : "set $1"
				}

			}
, 			{
				"box" : 				{
					"bubble" : 1,
					"bubbleside" : 2,
					"fontname" : "Arial",
					"fontsize" : 13.0,
					"id" : "obj-71",
					"maxclass" : "comment",
					"numinlets" : 1,
					"numoutlets" : 0,
					"patching_rect" : [ 1000.500010251998901, 412.666670858860016, 73.0, 40.0 ],
					"text" : "set Q or S"
				}

			}
, 			{
				"box" : 				{
					"fontname" : "Arial",
					"fontsize" : 13.0,
					"format" : 6,
					"id" : "obj-72",
					"maxclass" : "flonum",
					"numinlets" : 1,
					"numoutlets" : 2,
					"outlettype" : [ "", "bang" ],
					"parameter_enable" : 0,
					"patching_rect" : [ 1013.000010251998901, 452.666670858860016, 55.0, 23.0 ]
				}

			}
, 			{
				"box" : 				{
					"fontname" : "Arial",
					"fontsize" : 13.0,
					"format" : 6,
					"id" : "obj-74",
					"maxclass" : "flonum",
					"numinlets" : 1,
					"numoutlets" : 2,
					"outlettype" : [ "", "bang" ],
					"parameter_enable" : 0,
					"patching_rect" : [ 933.000010251998901, 452.666670858860016, 55.0, 23.0 ]
				}

			}
, 			{
				"box" : 				{
					"fontname" : "Arial",
					"fontsize" : 13.0,
					"format" : 6,
					"id" : "obj-75",
					"maxclass" : "flonum",
					"numinlets" : 1,
					"numoutlets" : 2,
					"outlettype" : [ "", "bang" ],
					"parameter_enable" : 0,
					"patching_rect" : [ 843.000010251998901, 452.666670858860016, 57.0, 23.0 ]
				}

			}
, 			{
				"box" : 				{
					"bubble" : 1,
					"bubbleside" : 2,
					"fontname" : "Arial",
					"fontsize" : 13.0,
					"id" : "obj-82",
					"linecount" : 2,
					"maxclass" : "comment",
					"numinlets" : 1,
					"numoutlets" : 0,
					"patching_rect" : [ 827.375010251998901, 397.666670858860016, 88.25, 55.0 ],
					"presentation_linecount" : 2,
					"text" : "set cutoff or center freq"
				}

			}
, 			{
				"box" : 				{
					"bubble" : 1,
					"bubbleside" : 2,
					"fontname" : "Arial",
					"fontsize" : 13.0,
					"id" : "obj-83",
					"maxclass" : "comment",
					"numinlets" : 1,
					"numoutlets" : 0,
					"patching_rect" : [ 933.000010251998901, 412.666670858860016, 59.0, 40.0 ],
					"text" : "set gain"
				}

			}
, 			{
				"box" : 				{
					"bubble" : 1,
					"bubbleside" : 2,
					"fontname" : "Arial",
					"fontsize" : 13.0,
					"id" : "obj-85",
					"maxclass" : "comment",
					"numinlets" : 1,
					"numoutlets" : 0,
					"patching_rect" : [ 681.250010251998901, 397.666670858860016, 118.0, 40.0 ],
					"text" : "set filter response"
				}

			}
, 			{
				"box" : 				{
					"attr" : "edit_mode",
					"fontface" : 0,
					"fontname" : "Arial",
					"fontsize" : 13.0,
					"id" : "obj-6",
					"lock" : 1,
					"maxclass" : "attrui",
					"numinlets" : 1,
					"numoutlets" : 1,
					"orientation" : 1,
					"outlettype" : [ "" ],
					"parameter_enable" : 0,
					"patching_rect" : [ 716.250010251998901, 429.666670858860016, 83.0, 46.0 ],
					"text_width" : 83.0
				}

			}
, 			{
				"box" : 				{
					"id" : "obj-5",
					"maxclass" : "newobj",
					"numinlets" : 6,
					"numoutlets" : 1,
					"outlettype" : [ "signal" ],
					"patching_rect" : [ 120.666670262813568, 198.666672587394714, 71.5, 22.0 ],
					"text" : "biquad~"
				}

			}
, 			{
				"box" : 				{
					"id" : "obj-17",
					"maxclass" : "message",
					"numinlets" : 2,
					"numoutlets" : 1,
					"outlettype" : [ "" ],
					"patching_rect" : [ 904.749999999999886, 342.999999999999943, 78.0, 22.0 ],
					"text" : "transpose $1"
				}

			}
, 			{
				"box" : 				{
					"id" : "obj-25",
					"maxclass" : "live.dial",
					"numinlets" : 1,
					"numoutlets" : 2,
					"outlettype" : [ "", "float" ],
					"parameter_enable" : 1,
					"patching_rect" : [ 904.749999999999886, 269.269387498665822, 47.0, 54.0 ],
					"saved_attribute_attributes" : 					{
						"valueof" : 						{
							"parameter_initial" : [ 0 ],
							"parameter_initial_enable" : 1,
							"parameter_longname" : "live.dial[24]",
							"parameter_mmax" : 50.0,
							"parameter_mmin" : -50.0,
							"parameter_shortname" : "transpose",
							"parameter_type" : 0,
							"parameter_units" : "st",
							"parameter_unitstyle" : 9
						}

					}
,
					"triangle" : 1,
					"varname" : "live.dial[8]"
				}

			}
, 			{
				"box" : 				{
					"id" : "obj-7",
					"maxclass" : "message",
					"numinlets" : 2,
					"numoutlets" : 1,
					"outlettype" : [ "" ],
					"patching_rect" : [ 992.5, 342.999999999999943, 95.0, 22.0 ],
					"text" : "pretranspose $1"
				}

			}
, 			{
				"box" : 				{
					"id" : "obj-41",
					"maxclass" : "live.dial",
					"numinlets" : 1,
					"numoutlets" : 2,
					"outlettype" : [ "", "float" ],
					"parameter_enable" : 1,
					"patching_rect" : [ 992.5, 269.269387498665822, 47.0, 54.0 ],
					"saved_attribute_attributes" : 					{
						"valueof" : 						{
							"parameter_initial" : [ 0 ],
							"parameter_initial_enable" : 1,
							"parameter_longname" : "live.dial[25]",
							"parameter_mmax" : 36.0,
							"parameter_mmin" : -36.0,
							"parameter_shortname" : "pretrans",
							"parameter_type" : 0,
							"parameter_units" : "st",
							"parameter_unitstyle" : 9
						}

					}
,
					"triangle" : 1,
					"varname" : "live.dial[10]"
				}

			}
, 			{
				"box" : 				{
					"id" : "obj-154",
					"maxclass" : "message",
					"numinlets" : 2,
					"numoutlets" : 1,
					"outlettype" : [ "" ],
					"patching_rect" : [ 946.669048629022086, 152.999993026256504, 65.0, 22.0 ],
					"text" : "window $1"
				}

			}
, 			{
				"box" : 				{
					"id" : "obj-152",
					"items" : [ "sine", ",", "hann", ",", "triangle", ",", "rampdown", ",", "rampup", ",", "onset", ",", "hamming", ",", "blackman", ",", "square" ],
					"maxclass" : "umenu",
					"numinlets" : 1,
					"numoutlets" : 3,
					"outlettype" : [ "int", "", "" ],
					"parameter_enable" : 0,
					"patching_rect" : [ 906.169048629021972, 102.999993026256504, 100.0, 22.0 ]
				}

			}
, 			{
				"box" : 				{
					"id" : "obj-15",
					"maxclass" : "number",
					"numinlets" : 1,
					"numoutlets" : 2,
					"outlettype" : [ "", "bang" ],
					"parameter_enable" : 1,
					"patching_rect" : [ 729.166666865348816, 90.528935797262989, 50.0, 22.0 ],
					"saved_attribute_attributes" : 					{
						"valueof" : 						{
							"parameter_initial" : [ 3 ],
							"parameter_initial_enable" : 1,
							"parameter_invisible" : 1,
							"parameter_longname" : "number",
							"parameter_shortname" : "number",
							"parameter_type" : 3
						}

					}
,
					"varname" : "number"
				}

			}
, 			{
				"box" : 				{
					"id" : "obj-12",
					"maxclass" : "message",
					"numinlets" : 2,
					"numoutlets" : 1,
					"outlettype" : [ "" ],
					"patching_rect" : [ 729.166666865348816, 132.666660885016142, 78.0, 22.0 ],
					"text" : "neighbors $1"
				}

			}
, 			{
				"box" : 				{
					"id" : "obj-14",
					"maxclass" : "live.dial",
					"numinlets" : 1,
					"numoutlets" : 2,
					"outlettype" : [ "", "float" ],
					"parameter_enable" : 1,
					"patching_rect" : [ 817.166666865348816, 64.528935797262989, 41.0, 48.0 ],
					"saved_attribute_attributes" : 					{
						"valueof" : 						{
							"parameter_initial" : [ 15 ],
							"parameter_initial_enable" : 1,
							"parameter_longname" : "live.dial[17]",
							"parameter_mmax" : 50.0,
							"parameter_shortname" : "radius",
							"parameter_type" : 0,
							"parameter_unitstyle" : 1
						}

					}
,
					"varname" : "live.dial[7]"
				}

			}
, 			{
				"box" : 				{
					"id" : "obj-11",
					"maxclass" : "message",
					"numinlets" : 2,
					"numoutlets" : 1,
					"outlettype" : [ "" ],
					"patching_rect" : [ 817.166666865348816, 132.666660885016142, 58.0, 22.0 ],
					"text" : "radius $1"
				}

			}
, 			{
				"box" : 				{
					"id" : "obj-155",
					"maxclass" : "message",
					"numinlets" : 2,
					"numoutlets" : 1,
					"outlettype" : [ "" ],
					"patching_rect" : [ 441.500000894069672, 114.999995887279454, 46.0, 22.0 ],
					"text" : "rate $1"
				}

			}
, 			{
				"box" : 				{
					"id" : "obj-112",
					"maxclass" : "message",
					"numinlets" : 2,
					"numoutlets" : 1,
					"outlettype" : [ "" ],
					"patching_rect" : [ 581.835706494069427, 114.999995887279454, 47.0, 22.0 ],
					"text" : "size $1"
				}

			}
, 			{
				"box" : 				{
					"id" : "obj-255",
					"maxclass" : "live.dial",
					"numinlets" : 1,
					"numoutlets" : 2,
					"outlettype" : [ "", "float" ],
					"parameter_enable" : 1,
					"patching_rect" : [ 441.500000894069672, 48.624995032971299, 41.000000000000227, 48.0 ],
					"saved_attribute_attributes" : 					{
						"valueof" : 						{
							"parameter_exponent" : 1.5,
							"parameter_initial" : [ 100 ],
							"parameter_initial_enable" : 1,
							"parameter_longname" : "live.dial[9]",
							"parameter_mmax" : 100.0,
							"parameter_mmin" : 5.0,
							"parameter_shortname" : "rate",
							"parameter_type" : 0,
							"parameter_unitstyle" : 5
						}

					}
,
					"varname" : "live.dial[6]"
				}

			}
, 			{
				"box" : 				{
					"id" : "obj-22",
					"maxclass" : "live.dial",
					"numinlets" : 1,
					"numoutlets" : 2,
					"outlettype" : [ "", "float" ],
					"parameter_enable" : 1,
					"patching_rect" : [ 581.835706494069427, 49.499995887279454, 41.000000000000227, 48.0 ],
					"saved_attribute_attributes" : 					{
						"valueof" : 						{
							"parameter_exponent" : 3.333,
							"parameter_initial" : [ 100 ],
							"parameter_initial_enable" : 1,
							"parameter_longname" : "live.dial[10]",
							"parameter_mmax" : 1000.0,
							"parameter_mmin" : 10.0,
							"parameter_shortname" : "size",
							"parameter_type" : 0,
							"parameter_unitstyle" : 5
						}

					}
,
					"varname" : "live.dial[2]"
				}

			}
, 			{
				"box" : 				{
					"basictuning" : 440,
					"clipheight" : 58.000001311302185,
					"data" : 					{
						"clips" : [ 							{
								"absolutepath" : "live-claps-loop.wav",
								"filename" : "live-claps-loop.wav",
								"filekind" : "audiofile",
								"id" : "u065007532",
								"loop" : 1,
								"content_state" : 								{
									"loop" : 1
								}

							}
, 							{
								"absolutepath" : "test-clap.wav",
								"filename" : "test-clap.wav",
								"filekind" : "audiofile",
								"id" : "u798011009",
								"loop" : 1,
								"content_state" : 								{
									"loop" : 1
								}

							}
 ]
					}
,
					"followglobaltempo" : 0,
					"formantcorrection" : 0,
					"id" : "obj-2",
					"maxclass" : "playlist~",
					"mode" : "basic",
					"numinlets" : 1,
					"numoutlets" : 5,
					"originallength" : [ 0.0, "ticks" ],
					"originaltempo" : 120.0,
					"outlettype" : [ "signal", "signal", "signal", "", "dictionary" ],
					"parameter_enable" : 0,
					"patching_rect" : [ 120.166664600372314, 27.333330869674683, 200.666668176651001, 118.00000262260437 ],
					"pitchcorrection" : 0,
					"quality" : "basic",
					"timestretch" : [ 0 ]
				}

			}
, 			{
				"box" : 				{
					"bgcolor" : [ 0.08992911875248, 0.093083925545216, 0.09630611538887, 1.0 ],
					"buffername" : "2745concat_buffer",
					"gridcolor" : [ 0.349019607843137, 0.349019607843137, 0.349019607843137, 0.0 ],
					"id" : "obj-51",
					"ignoreclick" : 1,
					"labels" : 0,
					"maxclass" : "waveform~",
					"numinlets" : 5,
					"numoutlets" : 6,
					"outlettype" : [ "float", "float", "float", "float", "list", "" ],
					"patching_rect" : [ 216.166664600372314, 429.333338320255336, 399.0, 101.178094584283144 ],
					"ruler" : 0,
					"vticks" : 0,
					"waveformcolor" : [ 0.76078431372549, 0.76078431372549, 0.76078431372549, 1.0 ]
				}

			}
, 			{
				"box" : 				{
					"id" : "obj-24",
					"maxclass" : "ezdac~",
					"numinlets" : 2,
					"numoutlets" : 0,
					"patching_rect" : [ 120.166664600372314, 423.166670858860016, 45.0, 45.0 ]
				}

			}
, 			{
				"box" : 				{
					"id" : "obj-19",
					"maxclass" : "newobj",
					"numinlets" : 1,
					"numoutlets" : 3,
					"outlettype" : [ "signal", "signal", "" ],
					"patching_rect" : [ 120.166664600372314, 370.83333832025528, 556.0, 22.0 ],
					"text" : "sp.concatsynth~ rhythms-concat @loudness 100 @pitch 90 @steal 1 @voices 24 @width 1 @glitch 10"
				}

			}
 ],
		"lines" : [ 			{
				"patchline" : 				{
					"destination" : [ "obj-72", 0 ],
					"hidden" : 1,
					"source" : [ "obj-10", 0 ]
				}

			}
, 			{
				"patchline" : 				{
					"destination" : [ "obj-19", 0 ],
					"source" : [ "obj-11", 0 ]
				}

			}
, 			{
				"patchline" : 				{
					"destination" : [ "obj-19", 0 ],
					"source" : [ "obj-112", 0 ]
				}

			}
, 			{
				"patchline" : 				{
					"destination" : [ "obj-148", 0 ],
					"midpoints" : [ 749.333333333333371, 803.5, 305.833333333333371, 803.5 ],
					"source" : [ "obj-113", 0 ]
				}

			}
, 			{
				"patchline" : 				{
					"destination" : [ "obj-19", 0 ],
					"source" : [ "obj-12", 0 ]
				}

			}
, 			{
				"patchline" : 				{
					"destination" : [ "obj-148", 0 ],
					"midpoints" : [ 929.16903893333324, 803.5, 305.833333333333371, 803.5 ],
					"source" : [ "obj-13", 0 ]
				}

			}
, 			{
				"patchline" : 				{
					"destination" : [ "obj-132", 0 ],
					"source" : [ "obj-130", 0 ]
				}

			}
, 			{
				"patchline" : 				{
					"destination" : [ "obj-148", 0 ],
					"midpoints" : [ 821.501186133333249, 803.5, 305.833333333333371, 803.5 ],
					"source" : [ "obj-132", 0 ]
				}

			}
, 			{
				"patchline" : 				{
					"destination" : [ "obj-113", 0 ],
					"source" : [ "obj-134", 0 ]
				}

			}
, 			{
				"patchline" : 				{
					"destination" : [ "obj-11", 0 ],
					"source" : [ "obj-14", 0 ]
				}

			}
, 			{
				"patchline" : 				{
					"destination" : [ "obj-27", 1 ],
					"midpoints" : [ 508.833333333333371, 860.089047292141572, 331.833333333333371, 860.089047292141572 ],
					"source" : [ "obj-148", 1 ]
				}

			}
, 			{
				"patchline" : 				{
					"destination" : [ "obj-27", 0 ],
					"source" : [ "obj-148", 0 ]
				}

			}
, 			{
				"patchline" : 				{
					"destination" : [ "obj-12", 0 ],
					"source" : [ "obj-15", 0 ]
				}

			}
, 			{
				"patchline" : 				{
					"destination" : [ "obj-154", 0 ],
					"source" : [ "obj-152", 1 ]
				}

			}
, 			{
				"patchline" : 				{
					"destination" : [ "obj-19", 0 ],
					"source" : [ "obj-154", 0 ]
				}

			}
, 			{
				"patchline" : 				{
					"destination" : [ "obj-19", 0 ],
					"source" : [ "obj-155", 0 ]
				}

			}
, 			{
				"patchline" : 				{
					"destination" : [ "obj-13", 0 ],
					"source" : [ "obj-16", 1 ]
				}

			}
, 			{
				"patchline" : 				{
					"destination" : [ "obj-19", 0 ],
					"source" : [ "obj-17", 0 ]
				}

			}
, 			{
				"patchline" : 				{
					"destination" : [ "obj-148", 0 ],
					"midpoints" : [ 690.669038933333127, 803.5, 305.833333333333371, 803.5 ],
					"source" : [ "obj-18", 0 ]
				}

			}
, 			{
				"patchline" : 				{
					"destination" : [ "obj-24", 1 ],
					"midpoints" : [ 398.166664600372314, 405.33333832025528, 155.666664600372314, 405.33333832025528 ],
					"source" : [ "obj-19", 1 ]
				}

			}
, 			{
				"patchline" : 				{
					"destination" : [ "obj-24", 0 ],
					"source" : [ "obj-19", 0 ]
				}

			}
, 			{
				"patchline" : 				{
					"destination" : [ "obj-51", 0 ],
					"midpoints" : [ 666.666664600372314, 416.33333832025528, 225.666664600372314, 416.33333832025528 ],
					"source" : [ "obj-19", 2 ]
				}

			}
, 			{
				"patchline" : 				{
					"destination" : [ "obj-5", 0 ],
					"source" : [ "obj-2", 0 ]
				}

			}
, 			{
				"patchline" : 				{
					"destination" : [ "obj-18", 0 ],
					"source" : [ "obj-20", 0 ]
				}

			}
, 			{
				"patchline" : 				{
					"destination" : [ "obj-148", 0 ],
					"source" : [ "obj-21", 0 ]
				}

			}
, 			{
				"patchline" : 				{
					"destination" : [ "obj-23", 0 ],
					"source" : [ "obj-21", 1 ]
				}

			}
, 			{
				"patchline" : 				{
					"destination" : [ "obj-112", 0 ],
					"source" : [ "obj-22", 0 ]
				}

			}
, 			{
				"patchline" : 				{
					"destination" : [ "obj-17", 0 ],
					"source" : [ "obj-25", 0 ]
				}

			}
, 			{
				"patchline" : 				{
					"destination" : [ "obj-155", 0 ],
					"source" : [ "obj-255", 0 ]
				}

			}
, 			{
				"patchline" : 				{
					"destination" : [ "obj-10", 0 ],
					"hidden" : 1,
					"source" : [ "obj-4", 3 ]
				}

			}
, 			{
				"patchline" : 				{
					"destination" : [ "obj-5", 0 ],
					"source" : [ "obj-4", 0 ]
				}

			}
, 			{
				"patchline" : 				{
					"destination" : [ "obj-8", 0 ],
					"hidden" : 1,
					"source" : [ "obj-4", 1 ]
				}

			}
, 			{
				"patchline" : 				{
					"destination" : [ "obj-9", 0 ],
					"hidden" : 1,
					"source" : [ "obj-4", 2 ]
				}

			}
, 			{
				"patchline" : 				{
					"destination" : [ "obj-7", 0 ],
					"source" : [ "obj-41", 0 ]
				}

			}
, 			{
				"patchline" : 				{
					"destination" : [ "obj-95", 0 ],
					"source" : [ "obj-5", 0 ]
				}

			}
, 			{
				"patchline" : 				{
					"destination" : [ "obj-4", 0 ],
					"source" : [ "obj-6", 0 ]
				}

			}
, 			{
				"patchline" : 				{
					"destination" : [ "obj-19", 0 ],
					"source" : [ "obj-7", 0 ]
				}

			}
, 			{
				"patchline" : 				{
					"destination" : [ "obj-4", 7 ],
					"hidden" : 1,
					"source" : [ "obj-72", 0 ]
				}

			}
, 			{
				"patchline" : 				{
					"destination" : [ "obj-4", 6 ],
					"hidden" : 1,
					"source" : [ "obj-74", 0 ]
				}

			}
, 			{
				"patchline" : 				{
					"destination" : [ "obj-4", 5 ],
					"hidden" : 1,
					"source" : [ "obj-75", 0 ]
				}

			}
, 			{
				"patchline" : 				{
					"destination" : [ "obj-75", 0 ],
					"hidden" : 1,
					"source" : [ "obj-8", 0 ]
				}

			}
, 			{
				"patchline" : 				{
					"destination" : [ "obj-74", 0 ],
					"hidden" : 1,
					"source" : [ "obj-9", 0 ]
				}

			}
, 			{
				"patchline" : 				{
					"destination" : [ "obj-21", 0 ],
					"source" : [ "obj-95", 1 ]
				}

			}
 ],
		"parameters" : 		{
			"obj-130" : [ "live.dial[26]", "width", 0 ],
			"obj-134" : [ "live.dial[28]", "speed", 0 ],
			"obj-14" : [ "live.dial[17]", "radius", 0 ],
			"obj-15" : [ "number", "number", 0 ],
			"obj-16" : [ "umenu", "umenu", 0 ],
			"obj-20" : [ "live.dial[29]", "size", 0 ],
			"obj-22" : [ "live.dial[10]", "size", 0 ],
			"obj-25" : [ "live.dial[24]", "transpose", 0 ],
			"obj-255" : [ "live.dial[9]", "rate", 0 ],
			"obj-41" : [ "live.dial[25]", "pretrans", 0 ],
			"parameterbanks" : 			{
				"0" : 				{
					"index" : 0,
					"name" : "",
					"parameters" : [ "-", "-", "-", "-", "-", "-", "-", "-" ]
				}

			}
,
			"inherited_shortname" : 1
		}
,
		"dependency_cache" : [ 			{
				"name" : "dk.multiconvolve~.mxo",
				"type" : "iLaX"
			}
, 			{
				"name" : "fluid.ampfeature~.mxo",
				"type" : "iLaX"
			}
, 			{
				"name" : "fluid.buf2list.mxo",
				"type" : "iLaX"
			}
, 			{
				"name" : "fluid.bufflatten~.mxo",
				"type" : "iLaX"
			}
, 			{
				"name" : "fluid.bufloudness~.mxo",
				"type" : "iLaX"
			}
, 			{
				"name" : "fluid.bufpitch~.mxo",
				"type" : "iLaX"
			}
, 			{
				"name" : "fluid.bufscale~.mxo",
				"type" : "iLaX"
			}
, 			{
				"name" : "fluid.bufspectralshape~.mxo",
				"type" : "iLaX"
			}
, 			{
				"name" : "fluid.bufstats~.mxo",
				"type" : "iLaX"
			}
, 			{
				"name" : "fluid.dataset~.mxo",
				"type" : "iLaX"
			}
, 			{
				"name" : "fluid.kdtree~.mxo",
				"type" : "iLaX"
			}
, 			{
				"name" : "fluid.list2buf.mxo",
				"type" : "iLaX"
			}
, 			{
				"name" : "fluid.onsetfeature~.mxo",
				"type" : "iLaX"
			}
, 			{
				"name" : "fluid.stats.mxo",
				"type" : "iLaX"
			}
, 			{
				"name" : "live-claps-loop.wav",
				"bootpath" : "~/Documents/GitHub/collective-cadence/max",
				"patcherrelativepath" : ".",
				"type" : "WAVE",
				"implicit" : 1
			}
, 			{
				"name" : "sp.concatanalysis~.maxpat",
				"bootpath" : "~/Documents/Max 8/Packages/SP-Tools/patchers",
				"patcherrelativepath" : "../../../Max 8/Packages/SP-Tools/patchers",
				"type" : "JSON",
				"implicit" : 1
			}
, 			{
				"name" : "sp.concatmatch.maxpat",
				"bootpath" : "~/Documents/Max 8/Packages/SP-Tools/patchers",
				"patcherrelativepath" : "../../../Max 8/Packages/SP-Tools/patchers",
				"type" : "JSON",
				"implicit" : 1
			}
, 			{
				"name" : "sp.concatplayer~.maxpat",
				"bootpath" : "~/Documents/Max 8/Packages/SP-Tools/patchers",
				"patcherrelativepath" : "../../../Max 8/Packages/SP-Tools/patchers",
				"type" : "JSON",
				"implicit" : 1
			}
, 			{
				"name" : "sp.concatsynth~.maxpat",
				"bootpath" : "~/Documents/Max 8/Packages/SP-Tools/patchers",
				"patcherrelativepath" : "../../../Max 8/Packages/SP-Tools/patchers",
				"type" : "JSON",
				"implicit" : 1
			}
, 			{
				"name" : "sp.convolver~.maxpat",
				"bootpath" : "~/Documents/Max 8/Packages/SP-Tools/patchers",
				"patcherrelativepath" : "../../../Max 8/Packages/SP-Tools/patchers",
				"type" : "JSON",
				"implicit" : 1
			}
, 			{
				"name" : "sp.datatranspose.maxpat",
				"bootpath" : "~/Documents/Max 8/Packages/SP-Tools/patchers",
				"patcherrelativepath" : "../../../Max 8/Packages/SP-Tools/patchers",
				"type" : "JSON",
				"implicit" : 1
			}
, 			{
				"name" : "sp.descriptorframe.maxpat",
				"bootpath" : "~/Documents/Max 8/Packages/SP-Tools/patchers",
				"patcherrelativepath" : "../../../Max 8/Packages/SP-Tools/patchers",
				"type" : "JSON",
				"implicit" : 1
			}
, 			{
				"name" : "sp.descriptorsrt~.maxpat",
				"bootpath" : "~/Documents/Max 8/Packages/SP-Tools/patchers",
				"patcherrelativepath" : "../../../Max 8/Packages/SP-Tools/patchers",
				"type" : "JSON",
				"implicit" : 1
			}
, 			{
				"name" : "sp.descriptors~.maxpat",
				"bootpath" : "~/Documents/Max 8/Packages/SP-Tools/patchers",
				"patcherrelativepath" : "../../../Max 8/Packages/SP-Tools/patchers",
				"type" : "JSON",
				"implicit" : 1
			}
, 			{
				"name" : "sp.onsetframe~.maxpat",
				"bootpath" : "~/Documents/Max 8/Packages/SP-Tools/patchers",
				"patcherrelativepath" : "../../../Max 8/Packages/SP-Tools/patchers",
				"type" : "JSON",
				"implicit" : 1
			}
, 			{
				"name" : "sp.onset~.maxpat",
				"bootpath" : "~/Documents/Max 8/Packages/SP-Tools/patchers",
				"patcherrelativepath" : "../../../Max 8/Packages/SP-Tools/patchers",
				"type" : "JSON",
				"implicit" : 1
			}
, 			{
				"name" : "sp.realtimeframe~.maxpat",
				"bootpath" : "~/Documents/Max 8/Packages/SP-Tools/patchers",
				"patcherrelativepath" : "../../../Max 8/Packages/SP-Tools/patchers",
				"type" : "JSON",
				"implicit" : 1
			}
, 			{
				"name" : "sp.spectralonset~.maxpat",
				"bootpath" : "~/Documents/Max 8/Packages/SP-Tools/patchers",
				"patcherrelativepath" : "../../../Max 8/Packages/SP-Tools/patchers",
				"type" : "JSON",
				"implicit" : 1
			}
, 			{
				"name" : "sp.triggeralign~.maxpat",
				"bootpath" : "~/Documents/Max 8/Packages/SP-Tools/patchers",
				"patcherrelativepath" : "../../../Max 8/Packages/SP-Tools/patchers",
				"type" : "JSON",
				"implicit" : 1
			}
, 			{
				"name" : "test-clap.wav",
				"bootpath" : "~/Documents/GitHub/collective-cadence/max",
				"patcherrelativepath" : ".",
				"type" : "WAVE",
				"implicit" : 1
			}
, 			{
				"name" : "widgetonsetfeaturecore~.maxpat",
				"bootpath" : "~/Documents/Max 8/Packages/SP-Tools/misc/Misc",
				"patcherrelativepath" : "../../../Max 8/Packages/SP-Tools/misc/Misc",
				"type" : "JSON",
				"implicit" : 1
			}
 ],
		"autosave" : 0
	}

}
