{
	"patcher" : 	{
		"fileversion" : 1,
		"appversion" : 		{
			"major" : 8,
			"minor" : 5,
			"revision" : 6,
			"architecture" : "x64",
			"modernui" : 1
		}
,
		"classnamespace" : "box",
		"rect" : [ 34.0, 87.0, 1334.0, 929.0 ],
		"bglocked" : 0,
		"openinpresentation" : 0,
		"default_fontsize" : 12.0,
		"default_fontface" : 0,
		"default_fontname" : "Arial",
		"gridonopen" : 1,
		"gridsize" : [ 15.0, 15.0 ],
		"gridsnaponopen" : 1,
		"objectsnaponopen" : 1,
		"statusbarvisible" : 2,
		"toolbarvisible" : 1,
		"lefttoolbarpinned" : 0,
		"toptoolbarpinned" : 0,
		"righttoolbarpinned" : 0,
		"bottomtoolbarpinned" : 0,
		"toolbars_unpinned_last_save" : 0,
		"tallnewobj" : 0,
		"boxanimatetime" : 200,
		"enablehscroll" : 1,
		"enablevscroll" : 1,
		"devicewidth" : 0.0,
		"description" : "",
		"digest" : "",
		"tags" : "",
		"style" : "",
		"subpatcher_template" : "",
		"assistshowspatchername" : 0,
		"boxes" : [ 			{
				"box" : 				{
					"id" : "obj-121",
					"maxclass" : "newobj",
					"numinlets" : 0,
					"numoutlets" : 1,
					"outlettype" : [ "" ],
					"patching_rect" : [ 702.0, 1283.0, 59.0, 22.0 ],
					"text" : "r to_ambi"
				}

			}
, 			{
				"box" : 				{
					"id" : "obj-120",
					"maxclass" : "newobj",
					"numinlets" : 1,
					"numoutlets" : 0,
					"patching_rect" : [ 880.0, 398.0, 61.0, 22.0 ],
					"text" : "s to_ambi"
				}

			}
, 			{
				"box" : 				{
					"id" : "obj-119",
					"maxclass" : "meter~",
					"numinlets" : 1,
					"numoutlets" : 1,
					"outlettype" : [ "float" ],
					"patching_rect" : [ 504.0, 1076.0, 80.0, 13.0 ]
				}

			}
, 			{
				"box" : 				{
					"id" : "obj-118",
					"maxclass" : "number",
					"numinlets" : 1,
					"numoutlets" : 2,
					"outlettype" : [ "", "bang" ],
					"parameter_enable" : 0,
					"patching_rect" : [ 912.0, 20.0, 50.0, 22.0 ]
				}

			}
, 			{
				"box" : 				{
					"id" : "obj-116",
					"maxclass" : "newobj",
					"numinlets" : 1,
					"numoutlets" : 1,
					"outlettype" : [ "signal" ],
					"patching_rect" : [ 581.0, 1002.0, 59.0, 22.0 ],
					"text" : "r~ search"
				}

			}
, 			{
				"box" : 				{
					"id" : "obj-115",
					"maxclass" : "newobj",
					"numinlets" : 1,
					"numoutlets" : 0,
					"patching_rect" : [ 176.0, 453.0, 61.0, 22.0 ],
					"text" : "s~ search"
				}

			}
, 			{
				"box" : 				{
					"id" : "obj-113",
					"maxclass" : "message",
					"numinlets" : 2,
					"numoutlets" : 1,
					"outlettype" : [ "" ],
					"patching_rect" : [ 1303.0, 994.0, 39.0, 22.0 ],
					"text" : "$1 10"
				}

			}
, 			{
				"box" : 				{
					"id" : "obj-114",
					"maxclass" : "newobj",
					"numinlets" : 2,
					"numoutlets" : 2,
					"outlettype" : [ "signal", "bang" ],
					"patching_rect" : [ 1303.0, 1021.0, 34.0, 22.0 ],
					"text" : "line~"
				}

			}
, 			{
				"box" : 				{
					"id" : "obj-111",
					"maxclass" : "message",
					"numinlets" : 2,
					"numoutlets" : 1,
					"outlettype" : [ "" ],
					"patching_rect" : [ 1119.0, 994.0, 39.0, 22.0 ],
					"text" : "$1 10"
				}

			}
, 			{
				"box" : 				{
					"id" : "obj-112",
					"maxclass" : "newobj",
					"numinlets" : 2,
					"numoutlets" : 2,
					"outlettype" : [ "signal", "bang" ],
					"patching_rect" : [ 1119.0, 1021.0, 34.0, 22.0 ],
					"text" : "line~"
				}

			}
, 			{
				"box" : 				{
					"id" : "obj-109",
					"maxclass" : "message",
					"numinlets" : 2,
					"numoutlets" : 1,
					"outlettype" : [ "" ],
					"patching_rect" : [ 937.5, 994.0, 39.0, 22.0 ],
					"text" : "$1 10"
				}

			}
, 			{
				"box" : 				{
					"id" : "obj-110",
					"maxclass" : "newobj",
					"numinlets" : 2,
					"numoutlets" : 2,
					"outlettype" : [ "signal", "bang" ],
					"patching_rect" : [ 937.5, 1021.0, 34.0, 22.0 ],
					"text" : "line~"
				}

			}
, 			{
				"box" : 				{
					"id" : "obj-108",
					"maxclass" : "message",
					"numinlets" : 2,
					"numoutlets" : 1,
					"outlettype" : [ "" ],
					"patching_rect" : [ 702.0, 994.0, 39.0, 22.0 ],
					"text" : "$1 10"
				}

			}
, 			{
				"box" : 				{
					"id" : "obj-106",
					"maxclass" : "newobj",
					"numinlets" : 2,
					"numoutlets" : 2,
					"outlettype" : [ "signal", "bang" ],
					"patching_rect" : [ 702.0, 1021.0, 34.0, 22.0 ],
					"text" : "line~"
				}

			}
, 			{
				"box" : 				{
					"id" : "obj-103",
					"maxclass" : "newobj",
					"numinlets" : 2,
					"numoutlets" : 1,
					"outlettype" : [ "signal" ],
					"patching_rect" : [ 1288.0, 1056.0, 34.0, 22.0 ],
					"text" : "*~ 0."
				}

			}
, 			{
				"box" : 				{
					"id" : "obj-104",
					"maxclass" : "newobj",
					"numinlets" : 16,
					"numoutlets" : 1,
					"outlettype" : [ "signal" ],
					"patching_rect" : [ 1288.0, 1170.0, 188.0, 22.0 ],
					"text" : "nn~ rebe_streaming decode 2048"
				}

			}
, 			{
				"box" : 				{
					"id" : "obj-105",
					"maxclass" : "newobj",
					"numinlets" : 1,
					"numoutlets" : 16,
					"outlettype" : [ "signal", "signal", "signal", "signal", "signal", "signal", "signal", "signal", "signal", "signal", "signal", "signal", "signal", "signal", "signal", "signal" ],
					"patching_rect" : [ 1288.0, 1091.0, 188.0, 22.0 ],
					"text" : "nn~ rebe_streaming encode 2048"
				}

			}
, 			{
				"box" : 				{
					"id" : "obj-100",
					"maxclass" : "newobj",
					"numinlets" : 2,
					"numoutlets" : 1,
					"outlettype" : [ "signal" ],
					"patching_rect" : [ 1078.0, 1056.0, 34.0, 22.0 ],
					"text" : "*~ 0."
				}

			}
, 			{
				"box" : 				{
					"id" : "obj-101",
					"maxclass" : "newobj",
					"numinlets" : 16,
					"numoutlets" : 1,
					"outlettype" : [ "signal" ],
					"patching_rect" : [ 1078.0, 1170.0, 186.0, 22.0 ],
					"text" : "nn~ nazi_streaming decode 2048"
				}

			}
, 			{
				"box" : 				{
					"id" : "obj-102",
					"maxclass" : "newobj",
					"numinlets" : 1,
					"numoutlets" : 16,
					"outlettype" : [ "signal", "signal", "signal", "signal", "signal", "signal", "signal", "signal", "signal", "signal", "signal", "signal", "signal", "signal", "signal", "signal" ],
					"patching_rect" : [ 1078.0, 1091.0, 186.0, 22.0 ],
					"text" : "nn~ nazi_streaming encode 2048"
				}

			}
, 			{
				"box" : 				{
					"id" : "obj-99",
					"maxclass" : "newobj",
					"numinlets" : 2,
					"numoutlets" : 1,
					"outlettype" : [ "int" ],
					"patching_rect" : [ 472.0, 712.5, 33.0, 22.0 ],
					"text" : "== 1"
				}

			}
, 			{
				"box" : 				{
					"id" : "obj-98",
					"maxclass" : "newobj",
					"numinlets" : 0,
					"numoutlets" : 1,
					"outlettype" : [ "" ],
					"patching_rect" : [ 472.0, 678.5, 42.0, 22.0 ],
					"text" : "r state"
				}

			}
, 			{
				"box" : 				{
					"id" : "obj-97",
					"maxclass" : "newobj",
					"numinlets" : 1,
					"numoutlets" : 1,
					"outlettype" : [ "" ],
					"patching_rect" : [ 818.0, 20.0, 70.0, 22.0 ],
					"text" : "loadmess 0"
				}

			}
, 			{
				"box" : 				{
					"id" : "obj-96",
					"maxclass" : "newobj",
					"numinlets" : 2,
					"numoutlets" : 1,
					"outlettype" : [ "signal" ],
					"patching_rect" : [ 137.0, 417.0, 39.0, 22.0 ],
					"text" : "gate~"
				}

			}
, 			{
				"box" : 				{
					"id" : "obj-95",
					"maxclass" : "newobj",
					"numinlets" : 2,
					"numoutlets" : 1,
					"outlettype" : [ "signal" ],
					"patching_rect" : [ 93.0, 417.0, 39.0, 22.0 ],
					"text" : "gate~"
				}

			}
, 			{
				"box" : 				{
					"id" : "obj-94",
					"maxclass" : "newobj",
					"numinlets" : 2,
					"numoutlets" : 1,
					"outlettype" : [ "int" ],
					"patching_rect" : [ 93.0, 353.0, 33.0, 22.0 ],
					"text" : "== 1"
				}

			}
, 			{
				"box" : 				{
					"id" : "obj-93",
					"maxclass" : "newobj",
					"numinlets" : 0,
					"numoutlets" : 1,
					"outlettype" : [ "" ],
					"patching_rect" : [ 93.0, 323.0, 42.0, 22.0 ],
					"text" : "r state"
				}

			}
, 			{
				"box" : 				{
					"fontsize" : 14.0,
					"id" : "obj-92",
					"linecount" : 4,
					"maxclass" : "comment",
					"numinlets" : 1,
					"numoutlets" : 0,
					"patching_rect" : [ 1203.0, 54.0, 73.0, 69.0 ],
					"presentation" : 1,
					"presentation_linecount" : 4,
					"presentation_rect" : [ 1203.0, 55.0, 73.0, 69.0 ],
					"text" : "OFF\nSEARCH\nJAM\nEND"
				}

			}
, 			{
				"box" : 				{
					"disabled" : [ 0, 0, 0, 0 ],
					"id" : "obj-90",
					"itemtype" : 0,
					"maxclass" : "radiogroup",
					"numinlets" : 1,
					"numoutlets" : 1,
					"outlettype" : [ "" ],
					"parameter_enable" : 0,
					"patching_rect" : [ 1176.0, 55.0, 18.0, 66.0 ],
					"presentation" : 1,
					"presentation_rect" : [ 1176.0, 55.0, 18.0, 66.0 ],
					"size" : 4,
					"value" : 2
				}

			}
, 			{
				"box" : 				{
					"id" : "obj-89",
					"maxclass" : "newobj",
					"numinlets" : 0,
					"numoutlets" : 1,
					"outlettype" : [ "" ],
					"patching_rect" : [ 1176.0, 20.0, 42.0, 22.0 ],
					"text" : "r state"
				}

			}
, 			{
				"box" : 				{
					"id" : "obj-88",
					"maxclass" : "newobj",
					"numinlets" : 1,
					"numoutlets" : 0,
					"patching_rect" : [ 980.0, 89.0, 44.0, 22.0 ],
					"text" : "s state"
				}

			}
, 			{
				"box" : 				{
					"id" : "obj-87",
					"maxclass" : "newobj",
					"numinlets" : 1,
					"numoutlets" : 2,
					"outlettype" : [ "int", "int" ],
					"patching_rect" : [ 980.0, 55.0, 29.5, 22.0 ],
					"text" : "t 2 i"
				}

			}
, 			{
				"box" : 				{
					"id" : "obj-86",
					"maxclass" : "newobj",
					"numinlets" : 0,
					"numoutlets" : 1,
					"outlettype" : [ "" ],
					"patching_rect" : [ 980.0, 20.0, 51.0, 22.0 ],
					"text" : "r winner"
				}

			}
, 			{
				"box" : 				{
					"id" : "obj-85",
					"maxclass" : "newobj",
					"numinlets" : 1,
					"numoutlets" : 0,
					"patching_rect" : [ 49.0, 550.0, 53.0, 22.0 ],
					"text" : "s winner"
				}

			}
, 			{
				"box" : 				{
					"id" : "obj-84",
					"maxclass" : "number",
					"numinlets" : 1,
					"numoutlets" : 2,
					"outlettype" : [ "", "bang" ],
					"parameter_enable" : 0,
					"patching_rect" : [ 823.0, 704.0, 50.0, 22.0 ]
				}

			}
, 			{
				"box" : 				{
					"id" : "obj-82",
					"maxclass" : "newobj",
					"numinlets" : 2,
					"numoutlets" : 1,
					"outlettype" : [ "" ],
					"patching_rect" : [ 691.0, 630.0, 37.0, 22.0 ],
					"text" : "join 2"
				}

			}
, 			{
				"box" : 				{
					"format" : 6,
					"id" : "obj-81",
					"maxclass" : "flonum",
					"numinlets" : 1,
					"numoutlets" : 2,
					"outlettype" : [ "", "bang" ],
					"parameter_enable" : 0,
					"patching_rect" : [ 691.0, 704.0, 50.0, 22.0 ]
				}

			}
, 			{
				"box" : 				{
					"id" : "obj-63",
					"maxclass" : "newobj",
					"numinlets" : 2,
					"numoutlets" : 1,
					"outlettype" : [ "signal" ],
					"patching_rect" : [ 857.0, 1056.0, 34.0, 22.0 ],
					"text" : "*~ 0."
				}

			}
, 			{
				"box" : 				{
					"id" : "obj-60",
					"maxclass" : "newobj",
					"numinlets" : 8,
					"numoutlets" : 1,
					"outlettype" : [ "signal" ],
					"patching_rect" : [ 857.0, 1170.0, 208.0, 22.0 ],
					"text" : "nn~ rsr_rock_streaming decode 2048"
				}

			}
, 			{
				"box" : 				{
					"id" : "obj-62",
					"maxclass" : "newobj",
					"numinlets" : 1,
					"numoutlets" : 8,
					"outlettype" : [ "signal", "signal", "signal", "signal", "signal", "signal", "signal", "signal" ],
					"patching_rect" : [ 857.0, 1091.0, 208.0, 22.0 ],
					"text" : "nn~ rsr_rock_streaming encode 2048"
				}

			}
, 			{
				"box" : 				{
					"id" : "obj-57",
					"maxclass" : "newobj",
					"numinlets" : 2,
					"numoutlets" : 1,
					"outlettype" : [ "signal" ],
					"patching_rect" : [ 655.0, 1056.0, 34.0, 22.0 ],
					"text" : "*~ 0."
				}

			}
, 			{
				"box" : 				{
					"id" : "obj-40",
					"maxclass" : "newobj",
					"numinlets" : 4,
					"numoutlets" : 0,
					"patching_rect" : [ 815.0, 1447.0, 75.0, 22.0 ],
					"text" : "dac~ 1 2 3 4"
				}

			}
, 			{
				"box" : 				{
					"id" : "obj-7",
					"maxclass" : "newobj",
					"numinlets" : 16,
					"numoutlets" : 4,
					"outlettype" : [ "signal", "signal", "signal", "signal" ],
					"patching_rect" : [ 800.0, 1364.0, 176.5, 22.0 ],
					"saved_object_attributes" : 					{
						"active" : [ 1, 1, 1, 1 ],
						"gain" : 1.0,
						"interpolation" : 1,
						"order" : 3,
						"rotate_order" : 0
					}
,
					"text" : "ambidecode~ 3 4"
				}

			}
, 			{
				"box" : 				{
					"id" : "obj-61",
					"maxclass" : "newobj",
					"numinlets" : 4,
					"numoutlets" : 16,
					"outlettype" : [ "signal", "signal", "signal", "signal", "signal", "signal", "signal", "signal", "signal", "signal", "signal", "signal", "signal", "signal", "signal", "signal" ],
					"patching_rect" : [ 800.0, 1314.0, 176.5, 22.0 ],
					"saved_object_attributes" : 					{
						"active" : [ 1, 1, 1, 1 ],
						"center_att_db" : 6.0,
						"center_curve" : 0.2,
						"center_size" : 1.0,
						"db_unit" : 1.5,
						"dist_att" : 1.0,
						"exp_curve" : 1.0,
						"exp_cutoff_dist" : 30.0,
						"order" : 3,
						"rotate_order" : 0
					}
,
					"text" : "ambiencode~ 3 4"
				}

			}
, 			{
				"box" : 				{
					"id" : "obj-6",
					"maxclass" : "newobj",
					"numinlets" : 16,
					"numoutlets" : 1,
					"outlettype" : [ "signal" ],
					"patching_rect" : [ 655.0, 1170.0, 196.0, 22.0 ],
					"text" : "nn~ soviet_streaming decode 2048"
				}

			}
, 			{
				"box" : 				{
					"id" : "obj-1",
					"maxclass" : "newobj",
					"numinlets" : 1,
					"numoutlets" : 16,
					"outlettype" : [ "signal", "signal", "signal", "signal", "signal", "signal", "signal", "signal", "signal", "signal", "signal", "signal", "signal", "signal", "signal", "signal" ],
					"patching_rect" : [ 655.0, 1091.0, 196.0, 22.0 ],
					"text" : "nn~ soviet_streaming encode 2048"
				}

			}
, 			{
				"box" : 				{
					"id" : "obj-79",
					"maxclass" : "newobj",
					"numinlets" : 1,
					"numoutlets" : 2,
					"outlettype" : [ "", "" ],
					"patching_rect" : [ 691.0, 661.0, 151.0, 22.0 ],
					"saved_object_attributes" : 					{
						"filename" : "scores-to-rotation-speed.js",
						"parameter_enable" : 0
					}
,
					"text" : "js scores-to-rotation-speed"
				}

			}
, 			{
				"box" : 				{
					"id" : "obj-78",
					"maxclass" : "newobj",
					"numinlets" : 3,
					"numoutlets" : 1,
					"outlettype" : [ "" ],
					"patcher" : 					{
						"fileversion" : 1,
						"appversion" : 						{
							"major" : 8,
							"minor" : 5,
							"revision" : 6,
							"architecture" : "x64",
							"modernui" : 1
						}
,
						"classnamespace" : "box",
						"rect" : [ 592.0, 196.0, 640.0, 480.0 ],
						"bglocked" : 0,
						"openinpresentation" : 0,
						"default_fontsize" : 12.0,
						"default_fontface" : 0,
						"default_fontname" : "Arial",
						"gridonopen" : 1,
						"gridsize" : [ 15.0, 15.0 ],
						"gridsnaponopen" : 1,
						"objectsnaponopen" : 1,
						"statusbarvisible" : 2,
						"toolbarvisible" : 1,
						"lefttoolbarpinned" : 0,
						"toptoolbarpinned" : 0,
						"righttoolbarpinned" : 0,
						"bottomtoolbarpinned" : 0,
						"toolbars_unpinned_last_save" : 0,
						"tallnewobj" : 0,
						"boxanimatetime" : 200,
						"enablehscroll" : 1,
						"enablevscroll" : 1,
						"devicewidth" : 0.0,
						"description" : "",
						"digest" : "",
						"tags" : "",
						"style" : "",
						"subpatcher_template" : "",
						"assistshowspatchername" : 0,
						"boxes" : [ 							{
								"box" : 								{
									"id" : "obj-70",
									"maxclass" : "message",
									"numinlets" : 2,
									"numoutlets" : 1,
									"outlettype" : [ "" ],
									"patching_rect" : [ 157.0, 397.0, 35.0, 22.0 ],
									"text" : "clear"
								}

							}
, 							{
								"box" : 								{
									"id" : "obj-64",
									"maxclass" : "newobj",
									"numinlets" : 2,
									"numoutlets" : 1,
									"outlettype" : [ "" ],
									"patching_rect" : [ 69.0, 397.0, 64.0, 22.0 ],
									"text" : "pack 50. 1"
								}

							}
, 							{
								"box" : 								{
									"id" : "obj-58",
									"maxclass" : "newobj",
									"numinlets" : 1,
									"numoutlets" : 1,
									"outlettype" : [ "" ],
									"patching_rect" : [ 69.0, 436.0, 95.0, 22.0 ],
									"saved_object_attributes" : 									{
										"filename" : "onset-score.js",
										"parameter_enable" : 0
									}
,
									"text" : "js onset-score.js"
								}

							}
, 							{
								"box" : 								{
									"id" : "obj-45",
									"maxclass" : "newobj",
									"numinlets" : 1,
									"numoutlets" : 1,
									"outlettype" : [ "" ],
									"patching_rect" : [ 240.0, 285.0, 108.0, 22.0 ],
									"text" : "if $f1 < 50 then $f1"
								}

							}
, 							{
								"box" : 								{
									"id" : "obj-43",
									"maxclass" : "newobj",
									"numinlets" : 1,
									"numoutlets" : 1,
									"outlettype" : [ "" ],
									"patching_rect" : [ 213.0, 261.0, 108.0, 22.0 ],
									"text" : "if $f1 < 50 then $f1"
								}

							}
, 							{
								"box" : 								{
									"format" : 6,
									"id" : "obj-42",
									"maxclass" : "flonum",
									"numinlets" : 1,
									"numoutlets" : 2,
									"outlettype" : [ "", "bang" ],
									"parameter_enable" : 0,
									"patching_rect" : [ 254.0, 212.0, 50.0, 22.0 ]
								}

							}
, 							{
								"box" : 								{
									"format" : 6,
									"id" : "obj-36",
									"maxclass" : "flonum",
									"numinlets" : 1,
									"numoutlets" : 2,
									"outlettype" : [ "", "bang" ],
									"parameter_enable" : 0,
									"patching_rect" : [ 317.0, 212.0, 50.0, 22.0 ]
								}

							}
, 							{
								"box" : 								{
									"id" : "obj-31",
									"maxclass" : "newobj",
									"numinlets" : 2,
									"numoutlets" : 2,
									"outlettype" : [ "float", "" ],
									"patching_rect" : [ 317.0, 169.0, 35.0, 22.0 ],
									"text" : "timer"
								}

							}
, 							{
								"box" : 								{
									"id" : "obj-30",
									"maxclass" : "newobj",
									"numinlets" : 2,
									"numoutlets" : 2,
									"outlettype" : [ "float", "" ],
									"patching_rect" : [ 254.0, 169.0, 35.0, 22.0 ],
									"text" : "timer"
								}

							}
, 							{
								"box" : 								{
									"id" : "obj-28",
									"maxclass" : "button",
									"numinlets" : 1,
									"numoutlets" : 1,
									"outlettype" : [ "bang" ],
									"parameter_enable" : 0,
									"patching_rect" : [ 352.0, 112.0, 24.0, 24.0 ]
								}

							}
, 							{
								"box" : 								{
									"id" : "obj-29",
									"maxclass" : "newobj",
									"numinlets" : 1,
									"numoutlets" : 3,
									"outlettype" : [ "bang", "signal", "signal" ],
									"patching_rect" : [ 352.0, 73.0, 61.0, 22.0 ],
									"text" : "sp.onset~"
								}

							}
, 							{
								"box" : 								{
									"id" : "obj-27",
									"maxclass" : "button",
									"numinlets" : 1,
									"numoutlets" : 1,
									"outlettype" : [ "bang" ],
									"parameter_enable" : 0,
									"patching_rect" : [ 270.0, 112.0, 24.0, 24.0 ]
								}

							}
, 							{
								"box" : 								{
									"id" : "obj-24",
									"maxclass" : "newobj",
									"numinlets" : 1,
									"numoutlets" : 3,
									"outlettype" : [ "bang", "signal", "signal" ],
									"patching_rect" : [ 270.0, 73.0, 61.0, 22.0 ],
									"text" : "sp.onset~"
								}

							}
, 							{
								"box" : 								{
									"comment" : "",
									"id" : "obj-74",
									"index" : 2,
									"maxclass" : "inlet",
									"numinlets" : 0,
									"numoutlets" : 1,
									"outlettype" : [ "signal" ],
									"patching_rect" : [ 270.0, 13.0, 30.0, 30.0 ]
								}

							}
, 							{
								"box" : 								{
									"comment" : "",
									"id" : "obj-75",
									"index" : 1,
									"maxclass" : "inlet",
									"numinlets" : 0,
									"numoutlets" : 1,
									"outlettype" : [ "" ],
									"patching_rect" : [ 22.0, 40.0, 30.0, 30.0 ]
								}

							}
, 							{
								"box" : 								{
									"comment" : "",
									"id" : "obj-76",
									"index" : 3,
									"maxclass" : "inlet",
									"numinlets" : 0,
									"numoutlets" : 1,
									"outlettype" : [ "signal" ],
									"patching_rect" : [ 352.0, 13.0, 30.0, 30.0 ]
								}

							}
, 							{
								"box" : 								{
									"comment" : "",
									"id" : "obj-77",
									"index" : 1,
									"maxclass" : "outlet",
									"numinlets" : 1,
									"numoutlets" : 0,
									"patching_rect" : [ 69.0, 518.0, 30.0, 30.0 ]
								}

							}
 ],
						"lines" : [ 							{
								"patchline" : 								{
									"destination" : [ "obj-27", 0 ],
									"source" : [ "obj-24", 0 ]
								}

							}
, 							{
								"patchline" : 								{
									"destination" : [ "obj-30", 1 ],
									"order" : 1,
									"source" : [ "obj-27", 0 ]
								}

							}
, 							{
								"patchline" : 								{
									"destination" : [ "obj-31", 0 ],
									"order" : 0,
									"source" : [ "obj-27", 0 ]
								}

							}
, 							{
								"patchline" : 								{
									"destination" : [ "obj-30", 0 ],
									"order" : 1,
									"source" : [ "obj-28", 0 ]
								}

							}
, 							{
								"patchline" : 								{
									"destination" : [ "obj-31", 1 ],
									"order" : 0,
									"source" : [ "obj-28", 0 ]
								}

							}
, 							{
								"patchline" : 								{
									"destination" : [ "obj-28", 0 ],
									"source" : [ "obj-29", 0 ]
								}

							}
, 							{
								"patchline" : 								{
									"destination" : [ "obj-42", 0 ],
									"source" : [ "obj-30", 0 ]
								}

							}
, 							{
								"patchline" : 								{
									"destination" : [ "obj-36", 0 ],
									"source" : [ "obj-31", 0 ]
								}

							}
, 							{
								"patchline" : 								{
									"destination" : [ "obj-45", 0 ],
									"source" : [ "obj-36", 0 ]
								}

							}
, 							{
								"patchline" : 								{
									"destination" : [ "obj-43", 0 ],
									"source" : [ "obj-42", 0 ]
								}

							}
, 							{
								"patchline" : 								{
									"destination" : [ "obj-64", 0 ],
									"source" : [ "obj-43", 0 ]
								}

							}
, 							{
								"patchline" : 								{
									"destination" : [ "obj-64", 0 ],
									"source" : [ "obj-45", 0 ]
								}

							}
, 							{
								"patchline" : 								{
									"destination" : [ "obj-77", 0 ],
									"source" : [ "obj-58", 0 ]
								}

							}
, 							{
								"patchline" : 								{
									"destination" : [ "obj-58", 0 ],
									"source" : [ "obj-64", 0 ]
								}

							}
, 							{
								"patchline" : 								{
									"destination" : [ "obj-58", 0 ],
									"source" : [ "obj-70", 0 ]
								}

							}
, 							{
								"patchline" : 								{
									"destination" : [ "obj-24", 0 ],
									"source" : [ "obj-74", 0 ]
								}

							}
, 							{
								"patchline" : 								{
									"destination" : [ "obj-64", 1 ],
									"source" : [ "obj-75", 0 ]
								}

							}
, 							{
								"patchline" : 								{
									"destination" : [ "obj-29", 0 ],
									"source" : [ "obj-76", 0 ]
								}

							}
 ]
					}
,
					"patching_rect" : [ 49.0, 453.0, 107.0, 22.0 ],
					"saved_object_attributes" : 					{
						"description" : "",
						"digest" : "",
						"globalpatchername" : "",
						"tags" : ""
					}
,
					"text" : "p onsets-to-scores"
				}

			}
, 			{
				"box" : 				{
					"id" : "obj-71",
					"maxclass" : "newobj",
					"numinlets" : 2,
					"numoutlets" : 2,
					"outlettype" : [ "", "" ],
					"patching_rect" : [ 49.0, 499.0, 75.0, 22.0 ],
					"text" : "route winner"
				}

			}
, 			{
				"box" : 				{
					"id" : "obj-66",
					"linecount" : 8,
					"maxclass" : "message",
					"numinlets" : 2,
					"numoutlets" : 1,
					"outlettype" : [ "" ],
					"patching_rect" : [ 197.0, 820.0, 50.0, 116.0 ],
					"text" : "0.006912 0.940949 0.083597 0.313454"
				}

			}
, 			{
				"box" : 				{
					"id" : "obj-22",
					"maxclass" : "number",
					"maximum" : 4,
					"minimum" : 1,
					"numinlets" : 1,
					"numoutlets" : 2,
					"outlettype" : [ "", "bang" ],
					"parameter_enable" : 0,
					"patching_rect" : [ 12.0, 233.0, 50.0, 22.0 ]
				}

			}
, 			{
				"box" : 				{
					"id" : "obj-17",
					"maxclass" : "newobj",
					"numinlets" : 5,
					"numoutlets" : 1,
					"outlettype" : [ "signal" ],
					"patching_rect" : [ 149.5, 279.0, 68.0, 22.0 ],
					"text" : "selector~ 4"
				}

			}
, 			{
				"box" : 				{
					"id" : "obj-19",
					"maxclass" : "button",
					"numinlets" : 1,
					"numoutlets" : 1,
					"outlettype" : [ "bang" ],
					"parameter_enable" : 0,
					"patching_rect" : [ 240.0, 132.0, 24.0, 24.0 ]
				}

			}
, 			{
				"box" : 				{
					"id" : "obj-14",
					"maxclass" : "newobj",
					"numinlets" : 1,
					"numoutlets" : 1,
					"outlettype" : [ "bang" ],
					"patching_rect" : [ 160.0, 16.0, 58.0, 22.0 ],
					"text" : "loadbang"
				}

			}
, 			{
				"box" : 				{
					"id" : "obj-8",
					"linecount" : 4,
					"maxclass" : "message",
					"numinlets" : 2,
					"numoutlets" : 1,
					"outlettype" : [ "" ],
					"patching_rect" : [ 563.0, 59.5, 130.0, 62.0 ],
					"text" : "clear, append rebe-loop, append rebe-loop2, append rebe-loop2"
				}

			}
, 			{
				"box" : 				{
					"id" : "obj-4",
					"linecount" : 4,
					"maxclass" : "message",
					"numinlets" : 2,
					"numoutlets" : 1,
					"outlettype" : [ "" ],
					"patching_rect" : [ 420.0, 59.5, 114.0, 62.0 ],
					"text" : "clear, append nazi-loop, append nazi-loop2, append nazi-loop2"
				}

			}
, 			{
				"box" : 				{
					"id" : "obj-3",
					"linecount" : 4,
					"maxclass" : "message",
					"numinlets" : 2,
					"numoutlets" : 1,
					"outlettype" : [ "" ],
					"patching_rect" : [ 277.0, 59.5, 113.0, 62.0 ],
					"text" : "clear, append rsr_loop, append rsr_loop2, append rsr_loop3"
				}

			}
, 			{
				"box" : 				{
					"id" : "obj-51",
					"maxclass" : "newobj",
					"numinlets" : 3,
					"numoutlets" : 1,
					"outlettype" : [ "signal" ],
					"patching_rect" : [ 486.0, 195.0, 110.0, 22.0 ],
					"text" : "rhythm-looper rebe"
				}

			}
, 			{
				"box" : 				{
					"id" : "obj-48",
					"maxclass" : "newobj",
					"numinlets" : 3,
					"numoutlets" : 1,
					"outlettype" : [ "signal" ],
					"patching_rect" : [ 369.0, 195.0, 108.0, 22.0 ],
					"text" : "rhythm-looper nazi"
				}

			}
, 			{
				"box" : 				{
					"id" : "obj-47",
					"maxclass" : "newobj",
					"numinlets" : 3,
					"numoutlets" : 1,
					"outlettype" : [ "signal" ],
					"patching_rect" : [ 256.0, 195.0, 100.0, 22.0 ],
					"text" : "rhythm-looper rsr"
				}

			}
, 			{
				"box" : 				{
					"id" : "obj-5",
					"linecount" : 3,
					"maxclass" : "message",
					"numinlets" : 2,
					"numoutlets" : 1,
					"outlettype" : [ "" ],
					"patching_rect" : [ 7.0, 66.0, 136.0, 49.0 ],
					"text" : "clear, append sov-loop, append sov-loop2, append sov-loop3"
				}

			}
, 			{
				"box" : 				{
					"id" : "obj-46",
					"maxclass" : "message",
					"numinlets" : 2,
					"numoutlets" : 1,
					"outlettype" : [ "" ],
					"patching_rect" : [ 176.0, 124.0, 35.0, 22.0 ],
					"text" : "6000"
				}

			}
, 			{
				"box" : 				{
					"id" : "obj-44",
					"maxclass" : "newobj",
					"numinlets" : 3,
					"numoutlets" : 1,
					"outlettype" : [ "signal" ],
					"patching_rect" : [ 131.0, 195.0, 105.0, 22.0 ],
					"text" : "rhythm-looper sov"
				}

			}
, 			{
				"box" : 				{
					"basictuning" : 440,
					"data" : 					{
						"clips" : [ 							{
								"absolutepath" : "live-claps.wav",
								"filename" : "live-claps.wav",
								"filekind" : "audiofile",
								"id" : "u366032992",
								"selection" : [ 0.768421052631579, 0.91578947368421 ],
								"loop" : 1,
								"content_state" : 								{
									"loop" : 1
								}

							}
 ]
					}
,
					"followglobaltempo" : 0,
					"formantcorrection" : 0,
					"id" : "obj-59",
					"maxclass" : "playlist~",
					"mode" : "basic",
					"numinlets" : 1,
					"numoutlets" : 5,
					"originallength" : [ 0.0, "ticks" ],
					"originaltempo" : 120.0,
					"outlettype" : [ "signal", "signal", "signal", "", "dictionary" ],
					"parameter_enable" : 0,
					"patching_rect" : [ 250.5, 279.0, 150.0, 30.0 ],
					"pitchcorrection" : 0,
					"quality" : "basic",
					"timestretch" : [ 0 ]
				}

			}
, 			{
				"box" : 				{
					"format" : 6,
					"id" : "obj-53",
					"maxclass" : "flonum",
					"numinlets" : 1,
					"numoutlets" : 2,
					"outlettype" : [ "", "bang" ],
					"parameter_enable" : 0,
					"patching_rect" : [ 1203.0, 914.0, 50.0, 22.0 ]
				}

			}
, 			{
				"box" : 				{
					"id" : "obj-54",
					"linecount" : 3,
					"maxclass" : "newobj",
					"numinlets" : 1,
					"numoutlets" : 1,
					"outlettype" : [ "" ],
					"patching_rect" : [ 1203.0, 854.0, 131.0, 49.0 ],
					"text" : "expr 1-min(abs($f1+135)\\, 360-abs($f1+135))/180"
				}

			}
, 			{
				"box" : 				{
					"id" : "obj-55",
					"linecount" : 2,
					"maxclass" : "newobj",
					"numinlets" : 1,
					"numoutlets" : 1,
					"outlettype" : [ "" ],
					"patching_rect" : [ 1119.0, 807.5, 144.0, 35.0 ],
					"text" : "expr 1-min(abs($f1-135)\\, 360-abs($f1-135))/180"
				}

			}
, 			{
				"box" : 				{
					"format" : 6,
					"id" : "obj-56",
					"maxclass" : "flonum",
					"numinlets" : 1,
					"numoutlets" : 2,
					"outlettype" : [ "", "bang" ],
					"parameter_enable" : 0,
					"patching_rect" : [ 1119.0, 914.0, 50.0, 22.0 ]
				}

			}
, 			{
				"box" : 				{
					"format" : 6,
					"id" : "obj-52",
					"maxclass" : "flonum",
					"numinlets" : 1,
					"numoutlets" : 2,
					"outlettype" : [ "", "bang" ],
					"parameter_enable" : 0,
					"patching_rect" : [ 985.0, 914.0, 50.0, 22.0 ]
				}

			}
, 			{
				"box" : 				{
					"id" : "obj-50",
					"linecount" : 2,
					"maxclass" : "newobj",
					"numinlets" : 1,
					"numoutlets" : 1,
					"outlettype" : [ "" ],
					"patching_rect" : [ 985.0, 854.0, 137.0, 35.0 ],
					"text" : "expr 1-min(abs($f1-45)\\, 360-abs($f1-45))/180"
				}

			}
, 			{
				"box" : 				{
					"id" : "obj-49",
					"linecount" : 2,
					"maxclass" : "newobj",
					"numinlets" : 1,
					"numoutlets" : 1,
					"outlettype" : [ "" ],
					"patching_rect" : [ 901.0, 807.5, 144.0, 35.0 ],
					"text" : "expr 1-min(abs($f1+45)\\, 360-abs($f1+45))/180"
				}

			}
, 			{
				"box" : 				{
					"id" : "obj-39",
					"maxclass" : "newobj",
					"numinlets" : 1,
					"numoutlets" : 1,
					"outlettype" : [ "" ],
					"patching_rect" : [ 803.0, 860.5, 76.0, 22.0 ],
					"text" : "prepend aed"
				}

			}
, 			{
				"box" : 				{
					"id" : "obj-38",
					"maxclass" : "newobj",
					"numinlets" : 2,
					"numoutlets" : 2,
					"outlettype" : [ "", "" ],
					"patching_rect" : [ 776.0, 822.5, 46.0, 22.0 ],
					"text" : "route 5"
				}

			}
, 			{
				"box" : 				{
					"id" : "obj-37",
					"maxclass" : "message",
					"numinlets" : 2,
					"numoutlets" : 1,
					"outlettype" : [ "" ],
					"patching_rect" : [ 847.0, 461.0, 39.0, 22.0 ],
					"text" : "dump"
				}

			}
, 			{
				"box" : 				{
					"id" : "obj-34",
					"maxclass" : "newobj",
					"numinlets" : 2,
					"numoutlets" : 2,
					"outlettype" : [ "", "" ],
					"patching_rect" : [ 776.0, 794.5, 59.0, 22.0 ],
					"text" : "route aed"
				}

			}
, 			{
				"box" : 				{
					"format" : 6,
					"id" : "obj-26",
					"maxclass" : "flonum",
					"numinlets" : 1,
					"numoutlets" : 2,
					"outlettype" : [ "", "bang" ],
					"parameter_enable" : 0,
					"patching_rect" : [ 901.0, 914.0, 50.0, 22.0 ]
				}

			}
, 			{
				"box" : 				{
					"format" : 6,
					"id" : "obj-23",
					"maxclass" : "flonum",
					"numinlets" : 1,
					"numoutlets" : 2,
					"outlettype" : [ "", "bang" ],
					"parameter_enable" : 0,
					"patching_rect" : [ 985.0, 694.0, 50.0, 22.0 ]
				}

			}
, 			{
				"box" : 				{
					"id" : "obj-21",
					"maxclass" : "newobj",
					"numinlets" : 2,
					"numoutlets" : 2,
					"outlettype" : [ "", "" ],
					"patching_rect" : [ 985.0, 665.0, 47.0, 22.0 ],
					"text" : "zl nth 3"
				}

			}
, 			{
				"box" : 				{
					"id" : "obj-18",
					"maxclass" : "message",
					"numinlets" : 2,
					"numoutlets" : 1,
					"outlettype" : [ "" ],
					"patching_rect" : [ 1036.0, 387.0, 69.0, 22.0 ],
					"text" : "aed 5 0 0 1"
				}

			}
, 			{
				"box" : 				{
					"id" : "obj-16",
					"maxclass" : "newobj",
					"numinlets" : 1,
					"numoutlets" : 1,
					"outlettype" : [ "bang" ],
					"patching_rect" : [ 953.0, 317.0, 58.0, 22.0 ],
					"text" : "loadbang"
				}

			}
, 			{
				"box" : 				{
					"id" : "obj-15",
					"maxclass" : "message",
					"numinlets" : 2,
					"numoutlets" : 1,
					"outlettype" : [ "" ],
					"patching_rect" : [ 953.0, 351.0, 317.0, 22.0 ],
					"text" : "aed 1 -45 0 1, aed 2 45 0 1, aed 3 135 0 1, aed 4 -135 0 1"
				}

			}
, 			{
				"box" : 				{
					"id" : "obj-13",
					"maxclass" : "newobj",
					"numinlets" : 1,
					"numoutlets" : 1,
					"outlettype" : [ "" ],
					"patching_rect" : [ 525.0, 653.5, 138.0, 22.0 ],
					"text" : "loadmess connect raves"
				}

			}
, 			{
				"box" : 				{
					"id" : "obj-12",
					"maxclass" : "toggle",
					"numinlets" : 1,
					"numoutlets" : 1,
					"outlettype" : [ "int" ],
					"parameter_enable" : 0,
					"patching_rect" : [ 472.0, 746.5, 24.0, 24.0 ]
				}

			}
, 			{
				"box" : 				{
					"id" : "obj-10",
					"maxclass" : "newobj",
					"numinlets" : 2,
					"numoutlets" : 2,
					"outlettype" : [ "", "" ],
					"patching_rect" : [ 525.0, 794.5, 115.0, 22.0 ],
					"saved_object_attributes" : 					{
						"connect" : "raves",
						"interval" : 100,
						"pointsize" : 0.0,
						"trajectory_color" : [ 1.0, 0.0, 0.0, 0.5 ],
						"trajectory_point_color" : [ 1.0, 0.0, 0.0, 0.5 ],
						"volume_color" : [ 0.0, 0.0, 0.0, 1.0 ]
					}
,
					"text" : "ambicontrol rotate 5"
				}

			}
, 			{
				"box" : 				{
					"id" : "obj-9",
					"maxclass" : "ambimonitor",
					"numinlets" : 1,
					"numoutlets" : 3,
					"outlettype" : [ "", "", "" ],
					"patching_rect" : [ 953.0, 435.0, 200.0, 200.0 ],
					"varname" : "raves"
				}

			}
 ],
		"lines" : [ 			{
				"patchline" : 				{
					"destination" : [ "obj-6", 15 ],
					"source" : [ "obj-1", 15 ]
				}

			}
, 			{
				"patchline" : 				{
					"destination" : [ "obj-6", 14 ],
					"source" : [ "obj-1", 14 ]
				}

			}
, 			{
				"patchline" : 				{
					"destination" : [ "obj-6", 13 ],
					"source" : [ "obj-1", 13 ]
				}

			}
, 			{
				"patchline" : 				{
					"destination" : [ "obj-6", 12 ],
					"source" : [ "obj-1", 12 ]
				}

			}
, 			{
				"patchline" : 				{
					"destination" : [ "obj-6", 11 ],
					"source" : [ "obj-1", 11 ]
				}

			}
, 			{
				"patchline" : 				{
					"destination" : [ "obj-6", 10 ],
					"source" : [ "obj-1", 10 ]
				}

			}
, 			{
				"patchline" : 				{
					"destination" : [ "obj-6", 9 ],
					"source" : [ "obj-1", 9 ]
				}

			}
, 			{
				"patchline" : 				{
					"destination" : [ "obj-6", 8 ],
					"source" : [ "obj-1", 8 ]
				}

			}
, 			{
				"patchline" : 				{
					"destination" : [ "obj-6", 7 ],
					"source" : [ "obj-1", 7 ]
				}

			}
, 			{
				"patchline" : 				{
					"destination" : [ "obj-6", 6 ],
					"source" : [ "obj-1", 6 ]
				}

			}
, 			{
				"patchline" : 				{
					"destination" : [ "obj-6", 5 ],
					"source" : [ "obj-1", 5 ]
				}

			}
, 			{
				"patchline" : 				{
					"destination" : [ "obj-6", 4 ],
					"source" : [ "obj-1", 4 ]
				}

			}
, 			{
				"patchline" : 				{
					"destination" : [ "obj-6", 3 ],
					"source" : [ "obj-1", 3 ]
				}

			}
, 			{
				"patchline" : 				{
					"destination" : [ "obj-6", 2 ],
					"source" : [ "obj-1", 2 ]
				}

			}
, 			{
				"patchline" : 				{
					"destination" : [ "obj-6", 1 ],
					"source" : [ "obj-1", 1 ]
				}

			}
, 			{
				"patchline" : 				{
					"destination" : [ "obj-6", 0 ],
					"source" : [ "obj-1", 0 ]
				}

			}
, 			{
				"patchline" : 				{
					"destination" : [ "obj-102", 0 ],
					"source" : [ "obj-100", 0 ]
				}

			}
, 			{
				"patchline" : 				{
					"destination" : [ "obj-61", 2 ],
					"source" : [ "obj-101", 0 ]
				}

			}
, 			{
				"patchline" : 				{
					"destination" : [ "obj-101", 15 ],
					"source" : [ "obj-102", 15 ]
				}

			}
, 			{
				"patchline" : 				{
					"destination" : [ "obj-101", 14 ],
					"source" : [ "obj-102", 14 ]
				}

			}
, 			{
				"patchline" : 				{
					"destination" : [ "obj-101", 13 ],
					"source" : [ "obj-102", 13 ]
				}

			}
, 			{
				"patchline" : 				{
					"destination" : [ "obj-101", 12 ],
					"source" : [ "obj-102", 12 ]
				}

			}
, 			{
				"patchline" : 				{
					"destination" : [ "obj-101", 11 ],
					"source" : [ "obj-102", 11 ]
				}

			}
, 			{
				"patchline" : 				{
					"destination" : [ "obj-101", 10 ],
					"source" : [ "obj-102", 10 ]
				}

			}
, 			{
				"patchline" : 				{
					"destination" : [ "obj-101", 9 ],
					"source" : [ "obj-102", 9 ]
				}

			}
, 			{
				"patchline" : 				{
					"destination" : [ "obj-101", 8 ],
					"source" : [ "obj-102", 8 ]
				}

			}
, 			{
				"patchline" : 				{
					"destination" : [ "obj-101", 7 ],
					"source" : [ "obj-102", 7 ]
				}

			}
, 			{
				"patchline" : 				{
					"destination" : [ "obj-101", 6 ],
					"source" : [ "obj-102", 6 ]
				}

			}
, 			{
				"patchline" : 				{
					"destination" : [ "obj-101", 5 ],
					"source" : [ "obj-102", 5 ]
				}

			}
, 			{
				"patchline" : 				{
					"destination" : [ "obj-101", 4 ],
					"source" : [ "obj-102", 4 ]
				}

			}
, 			{
				"patchline" : 				{
					"destination" : [ "obj-101", 3 ],
					"source" : [ "obj-102", 3 ]
				}

			}
, 			{
				"patchline" : 				{
					"destination" : [ "obj-101", 2 ],
					"source" : [ "obj-102", 2 ]
				}

			}
, 			{
				"patchline" : 				{
					"destination" : [ "obj-101", 1 ],
					"source" : [ "obj-102", 1 ]
				}

			}
, 			{
				"patchline" : 				{
					"destination" : [ "obj-101", 0 ],
					"source" : [ "obj-102", 0 ]
				}

			}
, 			{
				"patchline" : 				{
					"destination" : [ "obj-105", 0 ],
					"source" : [ "obj-103", 0 ]
				}

			}
, 			{
				"patchline" : 				{
					"destination" : [ "obj-61", 3 ],
					"source" : [ "obj-104", 0 ]
				}

			}
, 			{
				"patchline" : 				{
					"destination" : [ "obj-104", 15 ],
					"source" : [ "obj-105", 15 ]
				}

			}
, 			{
				"patchline" : 				{
					"destination" : [ "obj-104", 14 ],
					"source" : [ "obj-105", 14 ]
				}

			}
, 			{
				"patchline" : 				{
					"destination" : [ "obj-104", 13 ],
					"source" : [ "obj-105", 13 ]
				}

			}
, 			{
				"patchline" : 				{
					"destination" : [ "obj-104", 12 ],
					"source" : [ "obj-105", 12 ]
				}

			}
, 			{
				"patchline" : 				{
					"destination" : [ "obj-104", 11 ],
					"source" : [ "obj-105", 11 ]
				}

			}
, 			{
				"patchline" : 				{
					"destination" : [ "obj-104", 10 ],
					"source" : [ "obj-105", 10 ]
				}

			}
, 			{
				"patchline" : 				{
					"destination" : [ "obj-104", 9 ],
					"source" : [ "obj-105", 9 ]
				}

			}
, 			{
				"patchline" : 				{
					"destination" : [ "obj-104", 8 ],
					"source" : [ "obj-105", 8 ]
				}

			}
, 			{
				"patchline" : 				{
					"destination" : [ "obj-104", 7 ],
					"source" : [ "obj-105", 7 ]
				}

			}
, 			{
				"patchline" : 				{
					"destination" : [ "obj-104", 6 ],
					"source" : [ "obj-105", 6 ]
				}

			}
, 			{
				"patchline" : 				{
					"destination" : [ "obj-104", 5 ],
					"source" : [ "obj-105", 5 ]
				}

			}
, 			{
				"patchline" : 				{
					"destination" : [ "obj-104", 4 ],
					"source" : [ "obj-105", 4 ]
				}

			}
, 			{
				"patchline" : 				{
					"destination" : [ "obj-104", 3 ],
					"source" : [ "obj-105", 3 ]
				}

			}
, 			{
				"patchline" : 				{
					"destination" : [ "obj-104", 2 ],
					"source" : [ "obj-105", 2 ]
				}

			}
, 			{
				"patchline" : 				{
					"destination" : [ "obj-104", 1 ],
					"source" : [ "obj-105", 1 ]
				}

			}
, 			{
				"patchline" : 				{
					"destination" : [ "obj-104", 0 ],
					"source" : [ "obj-105", 0 ]
				}

			}
, 			{
				"patchline" : 				{
					"destination" : [ "obj-57", 1 ],
					"source" : [ "obj-106", 0 ]
				}

			}
, 			{
				"patchline" : 				{
					"destination" : [ "obj-106", 0 ],
					"source" : [ "obj-108", 0 ]
				}

			}
, 			{
				"patchline" : 				{
					"destination" : [ "obj-110", 0 ],
					"source" : [ "obj-109", 0 ]
				}

			}
, 			{
				"patchline" : 				{
					"destination" : [ "obj-63", 1 ],
					"source" : [ "obj-110", 0 ]
				}

			}
, 			{
				"patchline" : 				{
					"destination" : [ "obj-112", 0 ],
					"source" : [ "obj-111", 0 ]
				}

			}
, 			{
				"patchline" : 				{
					"destination" : [ "obj-100", 1 ],
					"source" : [ "obj-112", 0 ]
				}

			}
, 			{
				"patchline" : 				{
					"destination" : [ "obj-114", 0 ],
					"source" : [ "obj-113", 0 ]
				}

			}
, 			{
				"patchline" : 				{
					"destination" : [ "obj-103", 1 ],
					"source" : [ "obj-114", 0 ]
				}

			}
, 			{
				"patchline" : 				{
					"destination" : [ "obj-100", 0 ],
					"order" : 1,
					"source" : [ "obj-116", 0 ]
				}

			}
, 			{
				"patchline" : 				{
					"destination" : [ "obj-103", 0 ],
					"order" : 0,
					"source" : [ "obj-116", 0 ]
				}

			}
, 			{
				"patchline" : 				{
					"destination" : [ "obj-119", 0 ],
					"order" : 4,
					"source" : [ "obj-116", 0 ]
				}

			}
, 			{
				"patchline" : 				{
					"destination" : [ "obj-57", 0 ],
					"order" : 3,
					"source" : [ "obj-116", 0 ]
				}

			}
, 			{
				"patchline" : 				{
					"destination" : [ "obj-63", 0 ],
					"order" : 2,
					"source" : [ "obj-116", 0 ]
				}

			}
, 			{
				"patchline" : 				{
					"destination" : [ "obj-88", 0 ],
					"source" : [ "obj-118", 0 ]
				}

			}
, 			{
				"patchline" : 				{
					"destination" : [ "obj-10", 0 ],
					"source" : [ "obj-12", 0 ]
				}

			}
, 			{
				"patchline" : 				{
					"destination" : [ "obj-61", 0 ],
					"source" : [ "obj-121", 0 ]
				}

			}
, 			{
				"patchline" : 				{
					"destination" : [ "obj-10", 0 ],
					"source" : [ "obj-13", 0 ]
				}

			}
, 			{
				"patchline" : 				{
					"destination" : [ "obj-3", 0 ],
					"order" : 2,
					"source" : [ "obj-14", 0 ]
				}

			}
, 			{
				"patchline" : 				{
					"destination" : [ "obj-4", 0 ],
					"order" : 1,
					"source" : [ "obj-14", 0 ]
				}

			}
, 			{
				"patchline" : 				{
					"destination" : [ "obj-5", 0 ],
					"order" : 3,
					"source" : [ "obj-14", 0 ]
				}

			}
, 			{
				"patchline" : 				{
					"destination" : [ "obj-8", 0 ],
					"order" : 0,
					"source" : [ "obj-14", 0 ]
				}

			}
, 			{
				"patchline" : 				{
					"destination" : [ "obj-120", 0 ],
					"order" : 1,
					"source" : [ "obj-15", 0 ]
				}

			}
, 			{
				"patchline" : 				{
					"destination" : [ "obj-9", 0 ],
					"order" : 0,
					"source" : [ "obj-15", 0 ]
				}

			}
, 			{
				"patchline" : 				{
					"destination" : [ "obj-15", 0 ],
					"order" : 1,
					"source" : [ "obj-16", 0 ]
				}

			}
, 			{
				"patchline" : 				{
					"destination" : [ "obj-18", 0 ],
					"order" : 0,
					"source" : [ "obj-16", 0 ]
				}

			}
, 			{
				"patchline" : 				{
					"destination" : [ "obj-95", 1 ],
					"midpoints" : [ 159.0, 381.0, 122.5, 381.0 ],
					"source" : [ "obj-17", 0 ]
				}

			}
, 			{
				"patchline" : 				{
					"destination" : [ "obj-9", 0 ],
					"source" : [ "obj-18", 0 ]
				}

			}
, 			{
				"patchline" : 				{
					"destination" : [ "obj-44", 2 ],
					"order" : 3,
					"source" : [ "obj-19", 0 ]
				}

			}
, 			{
				"patchline" : 				{
					"destination" : [ "obj-47", 2 ],
					"order" : 2,
					"source" : [ "obj-19", 0 ]
				}

			}
, 			{
				"patchline" : 				{
					"destination" : [ "obj-48", 2 ],
					"order" : 1,
					"source" : [ "obj-19", 0 ]
				}

			}
, 			{
				"patchline" : 				{
					"destination" : [ "obj-51", 2 ],
					"order" : 0,
					"source" : [ "obj-19", 0 ]
				}

			}
, 			{
				"patchline" : 				{
					"destination" : [ "obj-23", 0 ],
					"source" : [ "obj-21", 0 ]
				}

			}
, 			{
				"patchline" : 				{
					"destination" : [ "obj-17", 0 ],
					"order" : 0,
					"source" : [ "obj-22", 0 ]
				}

			}
, 			{
				"patchline" : 				{
					"destination" : [ "obj-78", 0 ],
					"order" : 1,
					"source" : [ "obj-22", 0 ]
				}

			}
, 			{
				"patchline" : 				{
					"destination" : [ "obj-49", 0 ],
					"order" : 3,
					"source" : [ "obj-23", 0 ]
				}

			}
, 			{
				"patchline" : 				{
					"destination" : [ "obj-50", 0 ],
					"order" : 2,
					"source" : [ "obj-23", 0 ]
				}

			}
, 			{
				"patchline" : 				{
					"destination" : [ "obj-54", 0 ],
					"order" : 0,
					"source" : [ "obj-23", 0 ]
				}

			}
, 			{
				"patchline" : 				{
					"destination" : [ "obj-55", 0 ],
					"order" : 1,
					"source" : [ "obj-23", 0 ]
				}

			}
, 			{
				"patchline" : 				{
					"destination" : [ "obj-82", 0 ],
					"order" : 4,
					"source" : [ "obj-23", 0 ]
				}

			}
, 			{
				"patchline" : 				{
					"destination" : [ "obj-108", 0 ],
					"source" : [ "obj-26", 0 ]
				}

			}
, 			{
				"patchline" : 				{
					"destination" : [ "obj-47", 0 ],
					"source" : [ "obj-3", 0 ]
				}

			}
, 			{
				"patchline" : 				{
					"destination" : [ "obj-38", 0 ],
					"source" : [ "obj-34", 0 ]
				}

			}
, 			{
				"patchline" : 				{
					"destination" : [ "obj-9", 0 ],
					"source" : [ "obj-37", 0 ]
				}

			}
, 			{
				"patchline" : 				{
					"destination" : [ "obj-39", 0 ],
					"source" : [ "obj-38", 1 ]
				}

			}
, 			{
				"patchline" : 				{
					"destination" : [ "obj-48", 0 ],
					"source" : [ "obj-4", 0 ]
				}

			}
, 			{
				"patchline" : 				{
					"destination" : [ "obj-17", 1 ],
					"source" : [ "obj-44", 0 ]
				}

			}
, 			{
				"patchline" : 				{
					"destination" : [ "obj-44", 1 ],
					"order" : 3,
					"source" : [ "obj-46", 0 ]
				}

			}
, 			{
				"patchline" : 				{
					"destination" : [ "obj-47", 1 ],
					"order" : 2,
					"source" : [ "obj-46", 0 ]
				}

			}
, 			{
				"patchline" : 				{
					"destination" : [ "obj-48", 1 ],
					"order" : 1,
					"source" : [ "obj-46", 0 ]
				}

			}
, 			{
				"patchline" : 				{
					"destination" : [ "obj-51", 1 ],
					"order" : 0,
					"source" : [ "obj-46", 0 ]
				}

			}
, 			{
				"patchline" : 				{
					"destination" : [ "obj-17", 2 ],
					"source" : [ "obj-47", 0 ]
				}

			}
, 			{
				"patchline" : 				{
					"destination" : [ "obj-17", 3 ],
					"source" : [ "obj-48", 0 ]
				}

			}
, 			{
				"patchline" : 				{
					"destination" : [ "obj-26", 0 ],
					"source" : [ "obj-49", 0 ]
				}

			}
, 			{
				"patchline" : 				{
					"destination" : [ "obj-44", 0 ],
					"source" : [ "obj-5", 0 ]
				}

			}
, 			{
				"patchline" : 				{
					"destination" : [ "obj-52", 0 ],
					"source" : [ "obj-50", 0 ]
				}

			}
, 			{
				"patchline" : 				{
					"destination" : [ "obj-17", 4 ],
					"source" : [ "obj-51", 0 ]
				}

			}
, 			{
				"patchline" : 				{
					"destination" : [ "obj-109", 0 ],
					"source" : [ "obj-52", 0 ]
				}

			}
, 			{
				"patchline" : 				{
					"destination" : [ "obj-113", 0 ],
					"source" : [ "obj-53", 0 ]
				}

			}
, 			{
				"patchline" : 				{
					"destination" : [ "obj-53", 0 ],
					"source" : [ "obj-54", 0 ]
				}

			}
, 			{
				"patchline" : 				{
					"destination" : [ "obj-56", 0 ],
					"source" : [ "obj-55", 0 ]
				}

			}
, 			{
				"patchline" : 				{
					"destination" : [ "obj-111", 0 ],
					"source" : [ "obj-56", 0 ]
				}

			}
, 			{
				"patchline" : 				{
					"destination" : [ "obj-1", 0 ],
					"source" : [ "obj-57", 0 ]
				}

			}
, 			{
				"patchline" : 				{
					"destination" : [ "obj-96", 1 ],
					"source" : [ "obj-59", 1 ]
				}

			}
, 			{
				"patchline" : 				{
					"destination" : [ "obj-96", 1 ],
					"source" : [ "obj-59", 0 ]
				}

			}
, 			{
				"patchline" : 				{
					"destination" : [ "obj-61", 0 ],
					"source" : [ "obj-6", 0 ]
				}

			}
, 			{
				"patchline" : 				{
					"destination" : [ "obj-61", 1 ],
					"source" : [ "obj-60", 0 ]
				}

			}
, 			{
				"patchline" : 				{
					"destination" : [ "obj-7", 15 ],
					"source" : [ "obj-61", 15 ]
				}

			}
, 			{
				"patchline" : 				{
					"destination" : [ "obj-7", 14 ],
					"source" : [ "obj-61", 14 ]
				}

			}
, 			{
				"patchline" : 				{
					"destination" : [ "obj-7", 13 ],
					"source" : [ "obj-61", 13 ]
				}

			}
, 			{
				"patchline" : 				{
					"destination" : [ "obj-7", 12 ],
					"source" : [ "obj-61", 12 ]
				}

			}
, 			{
				"patchline" : 				{
					"destination" : [ "obj-7", 11 ],
					"source" : [ "obj-61", 11 ]
				}

			}
, 			{
				"patchline" : 				{
					"destination" : [ "obj-7", 10 ],
					"source" : [ "obj-61", 10 ]
				}

			}
, 			{
				"patchline" : 				{
					"destination" : [ "obj-7", 9 ],
					"source" : [ "obj-61", 9 ]
				}

			}
, 			{
				"patchline" : 				{
					"destination" : [ "obj-7", 8 ],
					"source" : [ "obj-61", 8 ]
				}

			}
, 			{
				"patchline" : 				{
					"destination" : [ "obj-7", 7 ],
					"source" : [ "obj-61", 7 ]
				}

			}
, 			{
				"patchline" : 				{
					"destination" : [ "obj-7", 6 ],
					"source" : [ "obj-61", 6 ]
				}

			}
, 			{
				"patchline" : 				{
					"destination" : [ "obj-7", 5 ],
					"source" : [ "obj-61", 5 ]
				}

			}
, 			{
				"patchline" : 				{
					"destination" : [ "obj-7", 4 ],
					"source" : [ "obj-61", 4 ]
				}

			}
, 			{
				"patchline" : 				{
					"destination" : [ "obj-7", 3 ],
					"source" : [ "obj-61", 3 ]
				}

			}
, 			{
				"patchline" : 				{
					"destination" : [ "obj-7", 2 ],
					"source" : [ "obj-61", 2 ]
				}

			}
, 			{
				"patchline" : 				{
					"destination" : [ "obj-7", 1 ],
					"source" : [ "obj-61", 1 ]
				}

			}
, 			{
				"patchline" : 				{
					"destination" : [ "obj-7", 0 ],
					"source" : [ "obj-61", 0 ]
				}

			}
, 			{
				"patchline" : 				{
					"destination" : [ "obj-60", 7 ],
					"source" : [ "obj-62", 7 ]
				}

			}
, 			{
				"patchline" : 				{
					"destination" : [ "obj-60", 6 ],
					"source" : [ "obj-62", 6 ]
				}

			}
, 			{
				"patchline" : 				{
					"destination" : [ "obj-60", 5 ],
					"source" : [ "obj-62", 5 ]
				}

			}
, 			{
				"patchline" : 				{
					"destination" : [ "obj-60", 4 ],
					"source" : [ "obj-62", 4 ]
				}

			}
, 			{
				"patchline" : 				{
					"destination" : [ "obj-60", 3 ],
					"source" : [ "obj-62", 3 ]
				}

			}
, 			{
				"patchline" : 				{
					"destination" : [ "obj-60", 2 ],
					"source" : [ "obj-62", 2 ]
				}

			}
, 			{
				"patchline" : 				{
					"destination" : [ "obj-60", 1 ],
					"source" : [ "obj-62", 1 ]
				}

			}
, 			{
				"patchline" : 				{
					"destination" : [ "obj-60", 0 ],
					"source" : [ "obj-62", 0 ]
				}

			}
, 			{
				"patchline" : 				{
					"destination" : [ "obj-62", 0 ],
					"source" : [ "obj-63", 0 ]
				}

			}
, 			{
				"patchline" : 				{
					"destination" : [ "obj-40", 1 ],
					"source" : [ "obj-7", 1 ]
				}

			}
, 			{
				"patchline" : 				{
					"destination" : [ "obj-40", 0 ],
					"source" : [ "obj-7", 0 ]
				}

			}
, 			{
				"patchline" : 				{
					"destination" : [ "obj-66", 1 ],
					"order" : 1,
					"source" : [ "obj-71", 1 ]
				}

			}
, 			{
				"patchline" : 				{
					"destination" : [ "obj-82", 1 ],
					"order" : 0,
					"source" : [ "obj-71", 1 ]
				}

			}
, 			{
				"patchline" : 				{
					"destination" : [ "obj-85", 0 ],
					"source" : [ "obj-71", 0 ]
				}

			}
, 			{
				"patchline" : 				{
					"destination" : [ "obj-71", 0 ],
					"source" : [ "obj-78", 0 ]
				}

			}
, 			{
				"patchline" : 				{
					"destination" : [ "obj-10", 1 ],
					"order" : 1,
					"source" : [ "obj-79", 0 ]
				}

			}
, 			{
				"patchline" : 				{
					"destination" : [ "obj-81", 0 ],
					"order" : 0,
					"source" : [ "obj-79", 0 ]
				}

			}
, 			{
				"patchline" : 				{
					"destination" : [ "obj-84", 0 ],
					"source" : [ "obj-79", 1 ]
				}

			}
, 			{
				"patchline" : 				{
					"destination" : [ "obj-51", 0 ],
					"source" : [ "obj-8", 0 ]
				}

			}
, 			{
				"patchline" : 				{
					"destination" : [ "obj-79", 0 ],
					"source" : [ "obj-82", 0 ]
				}

			}
, 			{
				"patchline" : 				{
					"destination" : [ "obj-22", 0 ],
					"source" : [ "obj-84", 0 ]
				}

			}
, 			{
				"patchline" : 				{
					"destination" : [ "obj-87", 0 ],
					"source" : [ "obj-86", 0 ]
				}

			}
, 			{
				"patchline" : 				{
					"destination" : [ "obj-88", 0 ],
					"source" : [ "obj-87", 0 ]
				}

			}
, 			{
				"patchline" : 				{
					"destination" : [ "obj-90", 0 ],
					"source" : [ "obj-89", 0 ]
				}

			}
, 			{
				"patchline" : 				{
					"destination" : [ "obj-21", 0 ],
					"order" : 0,
					"source" : [ "obj-9", 0 ]
				}

			}
, 			{
				"patchline" : 				{
					"destination" : [ "obj-34", 0 ],
					"order" : 1,
					"source" : [ "obj-9", 0 ]
				}

			}
, 			{
				"patchline" : 				{
					"destination" : [ "obj-94", 0 ],
					"source" : [ "obj-93", 0 ]
				}

			}
, 			{
				"patchline" : 				{
					"destination" : [ "obj-95", 0 ],
					"order" : 1,
					"source" : [ "obj-94", 0 ]
				}

			}
, 			{
				"patchline" : 				{
					"destination" : [ "obj-96", 0 ],
					"order" : 0,
					"source" : [ "obj-94", 0 ]
				}

			}
, 			{
				"patchline" : 				{
					"destination" : [ "obj-115", 0 ],
					"order" : 0,
					"source" : [ "obj-95", 0 ]
				}

			}
, 			{
				"patchline" : 				{
					"destination" : [ "obj-78", 1 ],
					"order" : 1,
					"source" : [ "obj-95", 0 ]
				}

			}
, 			{
				"patchline" : 				{
					"destination" : [ "obj-115", 0 ],
					"order" : 0,
					"source" : [ "obj-96", 0 ]
				}

			}
, 			{
				"patchline" : 				{
					"destination" : [ "obj-78", 2 ],
					"order" : 1,
					"source" : [ "obj-96", 0 ]
				}

			}
, 			{
				"patchline" : 				{
					"destination" : [ "obj-88", 0 ],
					"source" : [ "obj-97", 0 ]
				}

			}
, 			{
				"patchline" : 				{
					"destination" : [ "obj-99", 0 ],
					"source" : [ "obj-98", 0 ]
				}

			}
, 			{
				"patchline" : 				{
					"destination" : [ "obj-12", 0 ],
					"source" : [ "obj-99", 0 ]
				}

			}
 ],
		"parameters" : 		{
			"obj-44::obj-14" : [ "number[1]", "number", 0 ],
			"obj-47::obj-14" : [ "number[3]", "number", 0 ],
			"obj-48::obj-14" : [ "number[6]", "number", 0 ],
			"obj-51::obj-14" : [ "number[2]", "number", 0 ],
			"parameterbanks" : 			{
				"0" : 				{
					"index" : 0,
					"name" : "",
					"parameters" : [ "-", "-", "-", "-", "-", "-", "-", "-" ]
				}

			}
,
			"inherited_shortname" : 1
		}
,
		"dependency_cache" : [ 			{
				"name" : "ambicontrol.mxo",
				"type" : "iLaX"
			}
, 			{
				"name" : "ambidecode~.mxo",
				"type" : "iLaX"
			}
, 			{
				"name" : "ambiencode~.mxo",
				"type" : "iLaX"
			}
, 			{
				"name" : "ambimonitor.mxo",
				"type" : "iLaX"
			}
, 			{
				"name" : "find-speed.js",
				"bootpath" : "~/Documents/GitHub/collective-cadence/max",
				"patcherrelativepath" : ".",
				"type" : "TEXT",
				"implicit" : 1
			}
, 			{
				"name" : "fluid.ampfeature~.mxo",
				"type" : "iLaX"
			}
, 			{
				"name" : "live-claps.wav",
				"bootpath" : "~/Documents/GitHub/collective-cadence/max",
				"patcherrelativepath" : ".",
				"type" : "WAVE",
				"implicit" : 1
			}
, 			{
				"name" : "nn~.mxo",
				"type" : "iLaX"
			}
, 			{
				"name" : "onset-score.js",
				"bootpath" : "~/Documents/GitHub/collective-cadence/max",
				"patcherrelativepath" : ".",
				"type" : "TEXT",
				"implicit" : 1
			}
, 			{
				"name" : "resume-ms.js",
				"bootpath" : "~/Documents/GitHub/collective-cadence/max",
				"patcherrelativepath" : ".",
				"type" : "TEXT",
				"implicit" : 1
			}
, 			{
				"name" : "rhythm-looper.maxpat",
				"bootpath" : "~/Documents/GitHub/collective-cadence/max",
				"patcherrelativepath" : ".",
				"type" : "JSON",
				"implicit" : 1
			}
, 			{
				"name" : "scores-to-rotation-speed.js",
				"bootpath" : "~/Documents/GitHub/collective-cadence/max",
				"patcherrelativepath" : ".",
				"type" : "TEXT",
				"implicit" : 1
			}
, 			{
				"name" : "sp.onset~.maxpat",
				"bootpath" : "~/Documents/Max 8/Packages/SP-Tools/patchers",
				"patcherrelativepath" : "../../../Max 8/Packages/SP-Tools/patchers",
				"type" : "JSON",
				"implicit" : 1
			}
, 			{
				"name" : "sp.probability~.maxpat",
				"bootpath" : "~/Documents/Max 8/Packages/SP-Tools/patchers",
				"patcherrelativepath" : "../../../Max 8/Packages/SP-Tools/patchers",
				"type" : "JSON",
				"implicit" : 1
			}
 ],
		"autosave" : 0,
		"boxgroups" : [ 			{
				"boxes" : [ "obj-92", "obj-90" ]
			}
 ]
	}

}
